<?xml version="1.0" encoding="utf-8"?>
<!-- Generator: Adobe Illustrator 23.0.2, SVG Export Plug-In . SVG Version: 6.00 Build 0)  -->
<svg version="1.1" id="Layer_1" xmlns="http://www.w3.org/2000/svg" xmlns:xlink="http://www.w3.org/1999/xlink" x="0px" y="0px"
	 viewBox="0 0 615.1 672.1" style="enable-background:new 0 0 615.1 672.1;" xml:space="preserve">
<style type="text/css">
	.st0{opacity:0.3;fill:url(#SVGID_1_);}
	.st1{opacity:0.3;}
	.st2{fill:url(#SVGID_2_);}
	.st3{fill:url(#SVGID_3_);}
	.st4{fill:url(#SVGID_4_);}
	.st5{fill:url(#SVGID_5_);}
	.st6{fill:url(#SVGID_6_);}
	.st7{fill:url(#SVGID_7_);}
	.st8{opacity:0.56;fill:#FFFFFF;}
	.st9{fill:url(#SVGID_8_);}
	.st10{fill:url(#SVGID_9_);}
	.st11{fill:url(#SVGID_10_);}
	.st12{fill:url(#SVGID_11_);}
	.st13{fill:url(#SVGID_12_);}
	.st14{fill:url(#SVGID_13_);}
	.st15{fill:url(#SVGID_14_);}
	.st16{opacity:0.57;}
	.st17{fill:#FFFFFF;}
	.st18{opacity:0.58;}
	.st19{fill:url(#SVGID_15_);}
	.st20{fill:url(#SVGID_16_);}
	.st21{fill:url(#SVGID_17_);}
	.st22{fill:url(#SVGID_18_);}
	.st23{fill:url(#SVGID_19_);}
	.st24{fill:url(#SVGID_20_);}
	.st25{fill:url(#SVGID_21_);}
	.st26{fill:url(#SVGID_22_);}
	.st27{fill:url(#SVGID_23_);}
	.st28{fill:url(#SVGID_24_);}
	.st29{fill:url(#SVGID_25_);}
	.st30{fill:url(#SVGID_26_);}
	.st31{fill:url(#SVGID_27_);}
	.st32{fill:url(#SVGID_28_);}
	.st33{fill:url(#SVGID_29_);}
	.st34{fill:url(#SVGID_30_);}
	.st35{fill:url(#SVGID_31_);}
	.st36{fill:url(#SVGID_32_);}
	.st37{fill:url(#SVGID_33_);}
	.st38{fill:url(#SVGID_34_);}
	.st39{opacity:0.68;}
	.st40{fill:url(#SVGID_35_);}
	.st41{fill:url(#SVGID_36_);}
	.st42{fill:url(#SVGID_37_);}
	.st43{fill:url(#SVGID_38_);}
	.st44{fill:url(#SVGID_39_);}
	.st45{fill:url(#SVGID_40_);}
	.st46{fill:url(#SVGID_41_);}
	.st47{fill:url(#SVGID_42_);}
	.st48{fill:url(#SVGID_43_);}
	.st49{fill:url(#SVGID_44_);}
	.st50{fill:url(#SVGID_45_);}
	.st51{fill:url(#SVGID_46_);}
	.st52{fill:url(#SVGID_47_);}
	.st53{fill:url(#SVGID_48_);}
	.st54{fill:url(#SVGID_49_);}
	.st55{fill:url(#SVGID_50_);}
	.st56{fill:url(#SVGID_51_);}
	.st57{fill:url(#SVGID_52_);}
	.st58{fill:url(#SVGID_53_);}
	.st59{fill:url(#SVGID_54_);}
	.st60{fill:url(#SVGID_55_);}
	.st61{fill:url(#SVGID_56_);}
	.st62{fill:url(#SVGID_57_);}
	.st63{fill:url(#SVGID_58_);}
	.st64{fill:url(#SVGID_59_);}
	.st65{fill:url(#SVGID_60_);}
	.st66{filter:url(#Adobe_OpacityMaskFilter);}
	.st67{filter:url(#Adobe_OpacityMaskFilter_1_);}
	.st68{mask:url(#SVGID_61_);fill:url(#SVGID_62_);}
	.st69{opacity:0.32;fill:url(#SVGID_63_);}
	.st70{fill:url(#SVGID_64_);}
</style>
<g>
	<linearGradient id="SVGID_1_" gradientUnits="userSpaceOnUse" x1="596.8862" y1="755.4353" x2="150.4902" y2="201.0395">
		<stop  offset="0" style="stop-color:#B37CFF"/>
		<stop  offset="1" style="stop-color:#F895E7"/>
	</linearGradient>
	<path class="st0" d="M474.8,536.3c-10.3,10.8-20,17.7-27.7,23.2c-90.5,64.5-197.5,45.7-220.2,41.1c-33.6-6.8-98.5-19.9-145.5-74.7
		c-71-83-60-213.7-4.9-300c10.1-15.8,63.3-103.4,171.5-117.5c65.5-8.5,141.8,8.6,197.1,54.7C561.1,259.6,552.8,454.7,474.8,536.3z"
		/>
	<g>
		<g>
			<g class="st1">
				
					<linearGradient id="SVGID_2_" gradientUnits="userSpaceOnUse" x1="1441.6788" y1="-443.4056" x2="1554.6946" y2="-443.4056" gradientTransform="matrix(0.9502 0.3116 -0.3116 0.9502 -1138.7944 113.9094)">
					<stop  offset="0" style="stop-color:#B37CFF"/>
					<stop  offset="1" style="stop-color:#F895E7"/>
				</linearGradient>
				<path class="st2" d="M357.6,185c-1-0.3-1.5-1.3-1.3-2.3c0.5-2.2,1-4.4,1.7-6.5c0.3-1,1.4-1.6,2.5-1.3c0,0,0,0,0,0
					c1,0.3,1.6,1.4,1.3,2.5c-0.6,2-1.2,4.1-1.6,6.2c-0.2,1.1-1.3,1.8-2.4,1.5C357.7,185,357.7,185,357.6,185z M363.1,168.6
					c-0.1,0-0.1-0.1-0.2-0.1c-1-0.5-1.4-1.6-1-2.6c0.9-2,2-4.1,3.1-6c0.5-0.9,1.7-1.3,2.7-0.7c0.9,0.5,1.3,1.8,0.7,2.7
					c-1.1,1.8-2,3.8-2.9,5.7C365.1,168.5,364.1,168.9,363.1,168.6z M372.1,153.8c-0.2-0.1-0.4-0.2-0.6-0.3c-0.9-0.7-1-1.9-0.4-2.8
					c1.4-1.8,2.8-3.5,4.4-5.2c0.7-0.8,2-0.9,2.8-0.1c0.8,0.7,0.9,2,0.1,2.8c-1.4,1.6-2.8,3.2-4.1,4.9
					C373.7,153.9,372.9,154.1,372.1,153.8z M384.1,141.5c-0.3-0.1-0.7-0.3-0.9-0.6c-0.7-0.8-0.6-2.1,0.3-2.8
					c1.7-1.4,3.6-2.8,5.4-4.1c0.9-0.6,2.1-0.4,2.8,0.5c0.6,0.9,0.4,2.1-0.5,2.8c-1.8,1.2-3.5,2.5-5.1,3.9
					C385.5,141.6,384.7,141.7,384.1,141.5z M398.6,132.1c-0.5-0.2-0.9-0.5-1.2-1c-0.5-1-0.1-2.2,0.9-2.7c2-1,4.1-1.9,6.2-2.8
					c1-0.4,2.2,0.1,2.6,1.1c0.4,1-0.1,2.2-1.1,2.6c-2,0.8-4,1.7-5.9,2.6C399.6,132.2,399.1,132.3,398.6,132.1z M414.8,126.2
					c-0.6-0.2-1.1-0.7-1.3-1.4c-0.3-1.1,0.4-2.1,1.5-2.4c2.2-0.5,4.4-1,6.6-1.3c1.1-0.2,2.1,0.6,2.3,1.7c0.2,1.1-0.6,2.1-1.7,2.3
					c-2.1,0.3-4.2,0.8-6.3,1.3C415.5,126.3,415.2,126.3,414.8,126.2z M485.3,144.3c-0.3-0.1-0.5-0.2-0.7-0.4
					c-1.6-1.4-3.2-2.8-4.9-4.1c-0.9-0.7-1-1.9-0.4-2.8c0.7-0.9,1.9-1,2.8-0.4c1.8,1.4,3.5,2.8,5.2,4.4c0.8,0.7,0.9,2,0.1,2.8
					C486.8,144.4,486,144.5,485.3,144.3z M431.9,124c-0.8-0.3-1.4-1-1.4-1.9c0-1.1,0.9-2,2-2c2.2,0,4.5,0,6.8,0.2
					c1.1,0.1,1.9,1,1.8,2.1c-0.1,1.1-1,1.9-2.1,1.8c-2.1-0.2-4.3-0.2-6.4-0.2C432.4,124.1,432.1,124,431.9,124z M471.3,134.1
					c-0.1,0-0.2-0.1-0.4-0.2c-1.9-1.1-3.8-2-5.7-2.9c-1-0.5-1.4-1.6-1-2.6c0.5-1,1.6-1.4,2.6-1c2,0.9,4.1,2,6,3.1
					c1,0.5,1.3,1.8,0.7,2.7C473.2,134.1,472.2,134.4,471.3,134.1z M449.1,125.7c-1-0.3-1.5-1.3-1.3-2.3c0.2-1.1,1.3-1.8,2.4-1.5
					c2.2,0.5,4.4,1,6.5,1.7c0,0,0,0,0,0c1,0.3,1.6,1.4,1.3,2.5c-0.3,1-1.4,1.6-2.5,1.3c-2-0.6-4.1-1.2-6.2-1.6
					C449.2,125.7,449.2,125.7,449.1,125.7z"/>
				
					<linearGradient id="SVGID_3_" gradientUnits="userSpaceOnUse" x1="1560.1884" y1="-473.171" x2="1566.7887" y2="-473.171" gradientTransform="matrix(0.9502 0.3116 -0.3116 0.9502 -1138.7944 113.9094)">
					<stop  offset="0" style="stop-color:#B37CFF"/>
					<stop  offset="1" style="stop-color:#F895E7"/>
				</linearGradient>
				<path class="st3" d="M494.6,154.6c-0.4-0.1-0.7-0.4-1-0.7c-0.6-0.8-1.3-1.6-1.9-2.4c-0.7-0.8-0.6-2.1,0.3-2.8
					c0.8-0.7,2.1-0.6,2.8,0.3c0.7,0.8,1.4,1.7,2,2.6c0.7,0.9,0.5,2.1-0.4,2.8C495.9,154.7,495.2,154.8,494.6,154.6z"/>
			</g>
			<g class="st1">
				
					<linearGradient id="SVGID_4_" gradientUnits="userSpaceOnUse" x1="1594.4468" y1="-422.7349" x2="1598.976" y2="-422.7349" gradientTransform="matrix(0.9502 0.3116 -0.3116 0.9502 -1138.7944 113.9094)">
					<stop  offset="0" style="stop-color:#B37CFF"/>
					<stop  offset="1" style="stop-color:#F895E7"/>
				</linearGradient>
				<path class="st4" d="M509.3,213.2c-0.9-0.3-1.5-1.2-1.3-2.2c0.2-1,0.3-2,0.4-3.1c0.1-1.1,1.1-1.9,2.2-1.7
					c1.1,0.1,1.9,1.1,1.7,2.2c-0.1,1.1-0.3,2.2-0.4,3.2c-0.2,1.1-1.2,1.8-2.3,1.6C509.5,213.3,509.4,213.2,509.3,213.2z"/>
				
					<linearGradient id="SVGID_5_" gradientUnits="userSpaceOnUse" x1="1483.5349" y1="-371.2166" x2="1599.9437" y2="-371.2166" gradientTransform="matrix(0.9502 0.3116 -0.3116 0.9502 -1138.7944 113.9094)">
					<stop  offset="0" style="stop-color:#B37CFF"/>
					<stop  offset="1" style="stop-color:#F895E7"/>
				</linearGradient>
				<path class="st5" d="M409.1,274.5c-0.9-0.3-1.7-0.6-2.6-0.9c-1-0.4-1.6-1.5-1.2-2.5c0.4-1,1.5-1.6,2.5-1.2c2,0.7,4,1.4,6,1.9
					c1.1,0.3,1.7,1.4,1.4,2.4c-0.3,1.1-1.4,1.7-2.4,1.4C411.6,275.3,410.3,274.9,409.1,274.5z M397,269.3c-0.1,0-0.2-0.1-0.3-0.1
					c-2-1-3.9-2.2-5.7-3.4c-0.9-0.6-1.2-1.8-0.6-2.7c0.6-0.9,1.8-1.2,2.7-0.6c1.8,1.1,3.6,2.2,5.5,3.2c1,0.5,1.3,1.7,0.8,2.7
					C398.9,269.2,397.9,269.6,397,269.3z M423.1,277.7c-0.9-0.3-1.5-1.2-1.3-2.1c0.1-1.1,1.1-1.8,2.2-1.7c2.1,0.3,4.2,0.5,6.3,0.6
					c1.1,0.1,1.9,1,1.9,2.1c-0.1,1.1-1,1.9-2.1,1.9c-2.2-0.1-4.4-0.3-6.6-0.6C423.3,277.7,423.2,277.7,423.1,277.7z M382.9,259.8
					c-0.2-0.1-0.5-0.2-0.7-0.4c-1.7-1.4-3.3-3-4.9-4.5c-0.8-0.8-0.8-2,0-2.8c0.8-0.8,2-0.8,2.8,0c1.5,1.5,3,2.9,4.6,4.3
					c0.8,0.7,0.9,2,0.2,2.8C384.5,259.8,383.6,260,382.9,259.8z M440,278c-0.7-0.2-1.3-0.9-1.4-1.7c-0.1-1.1,0.7-2.1,1.8-2.2
					c2.1-0.2,4.2-0.5,6.3-0.8c1.1-0.2,2.1,0.5,2.3,1.6c0.2,1.1-0.5,2.1-1.6,2.3c-2.2,0.4-4.4,0.7-6.6,0.9
					C440.5,278.1,440.3,278.1,440,278z M456.7,274.6c-0.6-0.2-1.1-0.6-1.3-1.3c-0.3-1,0.2-2.2,1.3-2.5c2-0.6,4-1.4,5.9-2.2
					c1-0.4,2.2,0.1,2.6,1.1c0.4,1-0.1,2.2-1.1,2.6c-2,0.8-4.1,1.6-6.2,2.3C457.5,274.7,457,274.7,456.7,274.6z M472.2,267.7
					c-0.4-0.1-0.8-0.4-1.1-0.9c-0.6-0.9-0.2-2.2,0.7-2.7c1.8-1.1,3.6-2.2,5.3-3.4c0.9-0.6,2.1-0.4,2.8,0.5c0.6,0.9,0.4,2.1-0.5,2.8
					c-1.8,1.3-3.7,2.5-5.6,3.6C473.3,267.8,472.7,267.8,472.2,267.7z M485.8,257.5c-0.3-0.1-0.6-0.3-0.8-0.5
					c-0.7-0.8-0.7-2.1,0.1-2.8c1.5-1.4,3-2.9,4.4-4.5c0.7-0.8,2-0.9,2.8-0.1c0.8,0.7,0.9,2,0.1,2.8c-1.5,1.6-3,3.2-4.7,4.7
					C487.2,257.6,486.4,257.7,485.8,257.5z M496.8,244.6c-0.2-0.1-0.3-0.1-0.5-0.2c-0.9-0.6-1.1-1.8-0.5-2.8
					c1.2-1.7,2.3-3.5,3.3-5.4c0.5-1,1.7-1.3,2.7-0.8c1,0.5,1.3,1.7,0.8,2.7c-1.1,1.9-2.3,3.8-3.5,5.6
					C498.6,244.6,497.7,244.9,496.8,244.6z M504.8,229.6c0,0-0.1,0-0.1,0c-1-0.4-1.5-1.6-1.1-2.6c0.6-1.4,1.1-2.9,1.6-4.4
					c0.2-0.5,0.3-1.1,0.5-1.6c0.3-1,1.4-1.6,2.5-1.3c1.1,0.3,1.6,1.4,1.3,2.5c-0.2,0.6-0.3,1.1-0.5,1.7c-0.5,1.5-1.1,3.1-1.7,4.6
					C506.9,229.4,505.8,229.9,504.8,229.6z"/>
				
					<linearGradient id="SVGID_6_" gradientUnits="userSpaceOnUse" x1="1471.9318" y1="-346.6819" x2="1478.4479" y2="-346.6819" gradientTransform="matrix(0.9502 0.3116 -0.3116 0.9502 -1138.7944 113.9094)">
					<stop  offset="0" style="stop-color:#B37CFF"/>
					<stop  offset="1" style="stop-color:#F895E7"/>
				</linearGradient>
				<path class="st6" d="M371.3,247.3c-0.4-0.1-0.7-0.4-1-0.7c-0.6-0.9-1.3-1.7-1.9-2.6c-0.6-0.9-0.4-2.1,0.5-2.8
					c0.9-0.6,2.1-0.4,2.8,0.5c0.6,0.8,1.2,1.7,1.8,2.5c0.7,0.9,0.5,2.1-0.4,2.8C372.5,247.4,371.9,247.5,371.3,247.3z"/>
			</g>
			<g>
				<linearGradient id="SVGID_7_" gradientUnits="userSpaceOnUse" x1="471.1109" y1="128.2664" x2="391.0084" y2="279.9754">
					<stop  offset="0" style="stop-color:#A737D5"/>
					<stop  offset="1" style="stop-color:#EF497A"/>
				</linearGradient>
				<path class="st7" d="M381,226.3c0.1,0.4,0.5,0.6,0.9,0.6l11.3-0.4c3,4.4,6.6,8.3,11,11.5l-1,11.2c0,0.4,0.2,0.8,0.5,0.9
					l12.4,5.5c0.4,0.2,0.8,0.1,1.1-0.2l7.7-8.2c5.3,1,10.7,1.1,15.9,0.4l7.3,8.6c0.3,0.3,0.7,0.4,1,0.3l12.6-4.9
					c0.4-0.1,0.6-0.5,0.6-0.9l-0.4-11.3c4.4-3,8.3-6.6,11.5-11l11.2,1c0.4,0,0.8-0.2,0.9-0.5l5.5-12.4c0.2-0.4,0.1-0.8-0.2-1.1
					l-8.2-7.7c1-5.3,1.1-10.7,0.4-15.9l8.6-7.3c0.3-0.3,0.4-0.7,0.3-1l-4.9-12.6c-0.1-0.4-0.5-0.6-0.9-0.6l-11.3,0.4
					c-3-4.4-6.6-8.3-11-11.5l1-11.2c0-0.4-0.2-0.8-0.5-0.9l-12.4-5.5c-0.4-0.2-0.8-0.1-1.1,0.2l-7.7,8.2c-5.3-1-10.7-1.1-15.9-0.4
					l-7.3-8.6c-0.3-0.3-0.7-0.4-1-0.3l-12.6,4.9c-0.4,0.1-0.6,0.5-0.6,0.9l0.4,11.3c-4.4,3-8.3,6.6-11.5,11l-11.2-1
					c-0.4,0-0.8,0.2-0.9,0.5l-5.5,12.4c-0.2,0.4-0.1,0.8,0.2,1.1l8.2,7.7c-1,5.3-1.1,10.7-0.4,15.9l-8.6,7.3c-0.3,0.3-0.4,0.7-0.3,1
					L381,226.3z"/>
				<path class="st8" d="M429.7,211.6c-6.3-2.1-10.3-8.5-9.1-15.2c1.3-7.4,8.3-12.4,15.7-11.1c3.6,0.6,6.7,2.6,8.8,5.6
					c2.1,3,2.9,6.6,2.3,10.1c-1.3,7.4-8.3,12.4-15.7,11.1C431,212,430.3,211.8,429.7,211.6z M437.2,188.8c-0.5-0.2-1-0.3-1.5-0.4
					c-5.7-1-11.1,2.8-12,8.5c-1,5.7,2.8,11.1,8.5,12c5.7,1,11.1-2.8,12-8.5c0.5-2.7-0.2-5.5-1.8-7.8
					C441.1,190.8,439.3,189.5,437.2,188.8z"/>
				<path class="st8" d="M423.8,230.3c-1.1-0.4-2.2-0.8-3.2-1.2l0,0c-0.3-0.1-0.7-0.3-1-0.5c-1.6-0.8-3.2-1.7-4.6-2.7c0,0,0,0-0.1,0
					c-0.1,0-0.1-0.1-0.2-0.1c-0.1-0.1-0.2-0.2-0.3-0.2c-0.3-0.2-0.4-0.6-0.3-0.9c0-0.1,0.1-0.2,0.1-0.2c0.3-0.4,0.8-0.4,1.1-0.2
					c1.8,1.3,3.8,2.5,5.9,3.4c10.3,4.6,21.8,3.2,30.5-2.6c4.9-3.2,8.9-7.8,11.5-13.6c0.4-1,0.8-2,1.2-3.1c2.3-6.9,2.1-14.4-0.6-21.3
					c-3.1-7.9-9-14.2-16.8-17.7c-16-7.1-34.9,0.1-42,16.2c-0.4,1-0.8,2-1.2,3c-1.5,4.4-1.9,9.1-1.3,13.7c0,0.1,0,0.2,0,0.3
					c-0.1,0.3-0.3,0.5-0.7,0.5c-0.4,0.1-0.8-0.3-0.9-0.7c-0.6-4.9-0.1-9.8,1.4-14.4c0.4-1.1,0.8-2.1,1.2-3.2
					c7.5-16.8,27.3-24.5,44.1-17c8.2,3.6,14.4,10.2,17.6,18.5c2.8,7.3,3,15.1,0.6,22.4c-0.4,1.1-0.8,2.2-1.2,3.2
					c-3.6,8.2-10.2,14.4-18.5,17.6C438.9,232.5,431.1,232.7,423.8,230.3z"/>
			</g>
		</g>
		<g>
			<g class="st1">
				
					<linearGradient id="SVGID_8_" gradientUnits="userSpaceOnUse" x1="1374.4515" y1="-349.2804" x2="1377.6729" y2="-349.2804" gradientTransform="matrix(0.9502 0.3116 -0.3116 0.9502 -1138.7944 113.9094)">
					<stop  offset="0" style="stop-color:#B37CFF"/>
					<stop  offset="1" style="stop-color:#F895E7"/>
				</linearGradient>
				<path class="st9" d="M277.1,213.5c-0.5-0.2-0.9-0.6-0.8-1.2c0-1,0.1-2.1,0.2-3.1c0.1-0.7,0.7-1.2,1.3-1.1
					c0.7,0.1,1.2,0.7,1.1,1.3c-0.1,1-0.2,2-0.2,3c0,0.7-0.6,1.2-1.3,1.2C277.3,213.6,277.2,213.5,277.1,213.5z"/>
				
					<linearGradient id="SVGID_9_" gradientUnits="userSpaceOnUse" x1="1373.1477" y1="-385.4688" x2="1436.2834" y2="-385.4688" gradientTransform="matrix(0.9502 0.3116 -0.3116 0.9502 -1138.7944 113.9094)">
					<stop  offset="0" style="stop-color:#B37CFF"/>
					<stop  offset="1" style="stop-color:#F895E7"/>
				</linearGradient>
				<path class="st10" d="M278.3,204.2c-0.6-0.2-0.9-0.8-0.8-1.4c0.4-1.7,0.9-3.5,1.4-5.2c0.1-0.4,0.2-0.7,0.4-1.1
					c0.2-0.6,0.9-0.9,1.6-0.7c0.6,0.2,1,0.9,0.7,1.6c-0.1,0.3-0.2,0.7-0.3,1c-0.5,1.6-1,3.3-1.4,5c-0.1,0.7-0.8,1.1-1.5,0.9
					C278.3,204.2,278.3,204.2,278.3,204.2z M282.5,192.2c-0.1,0-0.1,0-0.2-0.1c-0.6-0.3-0.9-1-0.6-1.6c1-1.9,2.1-3.8,3.2-5.6
					c0.4-0.6,1.1-0.7,1.7-0.3c0.6,0.4,0.7,1.1,0.3,1.7c-1.1,1.7-2.2,3.5-3.1,5.4C283.7,192.1,283,192.4,282.5,192.2z M289.5,181.6
					c-0.1,0-0.3-0.1-0.4-0.2c-0.5-0.4-0.6-1.2-0.1-1.7c1.4-1.6,2.9-3.2,4.5-4.7c0.5-0.5,1.3-0.4,1.7,0.1c0.5,0.5,0.4,1.3-0.1,1.7
					c-1.5,1.4-3,2.9-4.3,4.5C290.4,181.6,289.9,181.7,289.5,181.6z M298.9,173c-0.2-0.1-0.5-0.2-0.6-0.5c-0.4-0.6-0.3-1.3,0.3-1.7
					c1.8-1.3,3.6-2.4,5.5-3.4c0.6-0.3,1.3-0.1,1.7,0.5c0.3,0.6,0.1,1.3-0.5,1.7c-1.8,1-3.6,2.1-5.3,3.3
					C299.6,173.1,299.2,173.1,298.9,173z M310.1,167c-0.3-0.1-0.6-0.4-0.8-0.7c-0.2-0.6,0.1-1.3,0.7-1.6c2-0.8,4.1-1.4,6.2-2
					c0.7-0.2,1.3,0.2,1.5,0.9c0.2,0.7-0.2,1.3-0.9,1.5c-2,0.5-4,1.1-5.9,1.9C310.6,167.1,310.3,167.1,310.1,167z M322.4,163.9
					c-0.4-0.1-0.8-0.5-0.8-1c-0.1-0.7,0.4-1.3,1.1-1.4c2.1-0.3,4.3-0.4,6.5-0.4c0.7,0,1.2,0.5,1.2,1.2c0,0.7-0.5,1.2-1.2,1.2
					c-2.1,0-4.1,0.1-6.2,0.4C322.7,163.9,322.5,163.9,322.4,163.9z M335.1,163.9c-0.5-0.2-0.9-0.7-0.8-1.3c0.1-0.7,0.7-1.1,1.4-1.1
					c2.1,0.3,4.3,0.7,6.4,1.2c0.7,0.2,1.1,0.8,0.9,1.5c-0.2,0.7-0.8,1.1-1.5,0.9c-2-0.5-4.1-0.9-6.1-1.1
					C335.2,163.9,335.1,163.9,335.1,163.9z M353.2,169.6c-0.1,0-0.1-0.1-0.2-0.1c-1.6-0.8-3.2-1.6-4.9-2.3c-0.3-0.1-0.5-0.2-0.8-0.3
					c-0.6-0.2-0.9-1-0.7-1.6c0.2-0.6,1-1,1.6-0.7c0.3,0.1,0.5,0.2,0.8,0.3c1.7,0.7,3.5,1.5,5.1,2.4c0.6,0.3,0.8,1.1,0.5,1.7
					C354.3,169.6,353.7,169.8,353.2,169.6z"/>
			</g>
			<g class="st1">
				
					<linearGradient id="SVGID_10_" gradientUnits="userSpaceOnUse" x1="1401.3229" y1="-324.9441" x2="1473.3821" y2="-324.9441" gradientTransform="matrix(0.9502 0.3116 -0.3116 0.9502 -1138.7944 113.9094)">
					<stop  offset="0" style="stop-color:#B37CFF"/>
					<stop  offset="1" style="stop-color:#F895E7"/>
				</linearGradient>
				<path class="st11" d="M313.3,264.4c-0.6-0.2-1-0.9-0.8-1.5c0.2-0.6,0.9-1,1.5-0.8c1.9,0.6,3.9,1.1,5.9,1.5
					c0.7,0.1,1.1,0.8,1,1.4c-0.1,0.7-0.8,1.1-1.4,1C317.5,265.6,315.4,265,313.3,264.4C313.3,264.4,313.3,264.4,313.3,264.4z
					 M307.5,262.2c0,0-0.1,0-0.1,0c-1.9-0.9-3.9-1.9-5.7-3c-0.6-0.4-0.8-1.1-0.4-1.7c0.3-0.6,1.1-0.8,1.7-0.4c1.7,1.1,3.6,2,5.4,2.8
					c0.6,0.3,0.9,1,0.6,1.6C308.7,262.1,308,262.4,307.5,262.2z M325.6,266.7c-0.5-0.2-0.9-0.7-0.8-1.2c0-0.7,0.6-1.2,1.3-1.1
					c2,0.1,4.1,0.1,6.1,0c0.7,0,1.3,0.5,1.3,1.1c0,0.7-0.5,1.3-1.1,1.3c-2.1,0.1-4.3,0.1-6.4,0C325.8,266.7,325.7,266.7,325.6,266.7
					z M296.8,255.7c-0.1,0-0.3-0.1-0.4-0.2c-1.7-1.3-3.3-2.8-4.8-4.3c-0.5-0.5-0.5-1.3,0-1.7c0.5-0.5,1.3-0.5,1.7,0
					c1.4,1.4,3,2.8,4.6,4.1c0.5,0.4,0.6,1.2,0.2,1.7C297.8,255.7,297.2,255.8,296.8,255.7z M338.1,265.9c-0.4-0.1-0.7-0.5-0.8-0.9
					c-0.1-0.7,0.3-1.3,1-1.4c2-0.4,4-0.9,5.9-1.5c0.6-0.2,1.3,0.2,1.5,0.8c0.2,0.6-0.2,1.3-0.8,1.5c-2,0.6-4.1,1.2-6.2,1.5
					C338.5,266,338.3,266,338.1,265.9z M350,262.2c-0.3-0.1-0.6-0.3-0.7-0.7c-0.3-0.6,0-1.3,0.6-1.6c1.9-0.8,3.7-1.8,5.4-2.8
					c0.6-0.4,1.3-0.2,1.7,0.4c0.4,0.6,0.2,1.3-0.4,1.7c-1.8,1.1-3.7,2.1-5.7,3C350.6,262.2,350.3,262.3,350,262.2z M360.7,255.7
					c-0.2-0.1-0.4-0.2-0.6-0.4c-0.4-0.5-0.3-1.3,0.2-1.7c1.6-1.3,3.1-2.6,4.6-4.1c0.5-0.5,1.3-0.5,1.7,0c0.5,0.5,0.5,1.3,0,1.7
					c-1.5,1.5-3.1,2.9-4.8,4.3C361.5,255.7,361.1,255.8,360.7,255.7z"/>
				
					<linearGradient id="SVGID_11_" gradientUnits="userSpaceOnUse" x1="1393.4016" y1="-320.4378" x2="1398.3297" y2="-320.4378" gradientTransform="matrix(0.9502 0.3116 -0.3116 0.9502 -1138.7944 113.9094)">
					<stop  offset="0" style="stop-color:#B37CFF"/>
					<stop  offset="1" style="stop-color:#F895E7"/>
				</linearGradient>
				<path class="st12" d="M287.9,246.8c-0.2-0.1-0.4-0.2-0.6-0.4c-0.6-0.8-1.3-1.7-1.8-2.5c-0.4-0.6-0.2-1.3,0.3-1.7
					c0.6-0.4,1.3-0.2,1.7,0.3c0.6,0.8,1.1,1.6,1.8,2.4c0.4,0.5,0.3,1.3-0.2,1.7C288.7,246.8,288.3,246.9,287.9,246.8z"/>
			</g>
			<g>
				<linearGradient id="SVGID_12_" gradientUnits="userSpaceOnUse" x1="343.6259" y1="159.7013" x2="319.3525" y2="250.7267">
					<stop  offset="0" style="stop-color:#A737D5"/>
					<stop  offset="1" style="stop-color:#EF497A"/>
				</linearGradient>
				<path class="st13" d="M293.8,232.1c0.1,0.2,0.3,0.4,0.6,0.4l7.5-0.3c2,2.9,4.4,5.5,7.3,7.7l-0.6,7.5c0,0.3,0.1,0.5,0.4,0.6
					l8.3,3.7c0.2,0.1,0.5,0,0.7-0.1l5.1-5.5c3.6,0.7,7.2,0.7,10.6,0.3l4.9,5.8c0.2,0.2,0.5,0.3,0.7,0.2l8.4-3.3
					c0.2-0.1,0.4-0.3,0.4-0.6l-0.3-7.5c2.9-2,5.5-4.4,7.7-7.3l7.5,0.6c0.3,0,0.5-0.1,0.6-0.4l3.7-8.3c0.1-0.2,0-0.5-0.1-0.7
					l-5.5-5.1c0.7-3.6,0.7-7.2,0.3-10.6l5.8-4.9c0.2-0.2,0.3-0.4,0.2-0.7l-3.3-8.4c-0.1-0.2-0.3-0.4-0.6-0.4l-7.5,0.3
					c-2-2.9-4.4-5.5-7.3-7.7l0.6-7.5c0-0.3-0.1-0.5-0.4-0.6l-8.3-3.7c-0.2-0.1-0.5,0-0.7,0.1l-5.1,5.5c-3.6-0.7-7.2-0.7-10.6-0.3
					l-4.9-5.8c-0.2-0.2-0.5-0.3-0.7-0.2l-8.4,3.3c-0.2,0.1-0.4,0.3-0.4,0.6l0.3,7.5c-2.9,2-5.5,4.4-7.7,7.3l-7.5-0.6
					c-0.3,0-0.5,0.1-0.6,0.4l-3.7,8.3c-0.1,0.2,0,0.5,0.1,0.7l5.5,5.1c-0.7,3.6-0.7,7.2-0.3,10.6l-5.8,4.9c-0.2,0.2-0.3,0.4-0.2,0.7
					L293.8,232.1z"/>
				<path class="st8" d="M326.4,222.4c-1.9-0.6-3.5-1.8-4.7-3.5c-1.4-2-2-4.5-1.6-6.9c0.9-5,5.7-8.4,10.7-7.6
					c5,0.9,8.4,5.7,7.6,10.7c-0.4,2.4-1.8,4.6-3.8,6c-2,1.4-4.5,2-6.9,1.6C327.2,222.6,326.8,222.5,326.4,222.4z M331.4,207.1
					c-0.3-0.1-0.6-0.2-1-0.2c-3.7-0.6-7.2,1.9-7.9,5.6c-0.3,1.8,0.1,3.6,1.1,5.1c1,1.5,2.6,2.5,4.4,2.8l0,0c1.8,0.3,3.6-0.1,5.1-1.1
					c1.5-1,2.5-2.6,2.8-4.4C336.5,211.4,334.5,208.1,331.4,207.1z"/>
				<path class="st8" d="M322.3,235.4c-0.7-0.2-1.5-0.5-2.2-0.8c-1.4-0.6-2.8-1.4-4.1-2.3c-0.1,0-0.1-0.1-0.2-0.1
					c-0.4-0.3-0.6-0.9-0.4-1.4c0-0.1,0.1-0.2,0.2-0.3c0.4-0.5,1.2-0.7,1.7-0.3c1.2,0.9,2.5,1.6,3.8,2.2l0,0c0.1,0,0.1,0.1,0.2,0.1
					c3.2,1.4,6.6,1.9,10,1.6c1.8-0.2,3.6-0.6,5.4-1.2c0,0,0,0,0,0c0,0,0.1,0,0.1-0.1c5.1-2,9.2-5.8,11.4-10.9c0.3-0.7,0.5-1.3,0.8-2
					c1.5-4.5,1.4-9.3-0.4-13.8c-2-5.1-5.8-9.2-10.9-11.4c-5-2.2-10.6-2.4-15.8-0.4c-5.1,2-9.2,5.8-11.4,10.9c-0.3,0.6-0.5,1.3-0.8,2
					c-0.9,2.9-1.2,5.9-0.9,8.9c0,0.2,0,0.4-0.1,0.5c-0.1,0.4-0.5,0.8-1,0.8c-0.7,0.1-1.3-0.4-1.4-1.1c-0.4-3.4-0.1-6.8,1-10
					c0.2-0.7,0.5-1.5,0.8-2.2c2.5-5.6,7-9.9,12.8-12.2c5.7-2.2,12-2.1,17.6,0.4c5.6,2.5,9.9,7,12.2,12.8c1.9,5,2.1,10.4,0.4,15.4
					c-0.2,0.7-0.5,1.5-0.9,2.2C345.7,233.7,333.4,239,322.3,235.4z"/>
			</g>
		</g>
	</g>
	<g>
		<g>
			<linearGradient id="SVGID_13_" gradientUnits="userSpaceOnUse" x1="211.0904" y1="528.543" x2="429.5513" y2="64.9202">
				<stop  offset="0" style="stop-color:#2B3582"/>
				<stop  offset="1" style="stop-color:#150E42"/>
			</linearGradient>
			<path class="st14" d="M58.5,229.3l446.7-7.5c18-0.3,32.4,15.1,31.4,33.5l-15.4,264.4c-0.8,14.5-12.5,25.8-26.6,25.9l-429.4,4.2
				c-10.6,0.1-19.4-8.4-19.8-19.3l-10.3-276C34.5,241,45.1,229.6,58.5,229.3z"/>
			<linearGradient id="SVGID_14_" gradientUnits="userSpaceOnUse" x1="452.9827" y1="112.9888" x2="21.1379" y2="790.2832">
				<stop  offset="0" style="stop-color:#53D8FF"/>
				<stop  offset="1" style="stop-color:#3840F7"/>
			</linearGradient>
			<path class="st15" d="M65.3,236.1l435.1-7.2c17.5-0.3,31.6,14.4,30.5,31.9l-15,251.6c-0.8,13.8-12.2,24.6-25.9,24.7l-418.2,4
				c-10.3,0.1-18.9-8-19.3-18.4l-10-262.6C42,247.1,52.3,236.3,65.3,236.1z"/>
		</g>
		<g class="st16">
			<rect x="179" y="465.7" class="st17" width="26.2" height="59.6"/>
			<rect x="222.8" y="439.9" class="st17" width="26.2" height="85.3"/>
			<rect x="266.6" y="412.1" class="st17" width="26.2" height="113.2"/>
			<rect x="310.4" y="393.2" class="st17" width="26.2" height="132.1"/>
			<rect x="354.2" y="362" class="st17" width="26.2" height="163.3"/>
			<rect x="398" y="325.1" class="st17" width="26.2" height="200.1"/>
		</g>
		<g>
			<path class="st17" d="M416.4,290.7c-2.1,0-3.8-1.8-3.9-4.2l-0.9-19.4l-16.9,12.1c-1.9,1.3-4.4,0.8-5.6-1.3
				c-1.2-2.1-0.7-4.8,1.2-6.2l28.5-20.4l1.6,34.6c0.1,2.4-1.6,4.5-3.8,4.7C416.6,290.7,416.5,290.7,416.4,290.7z"/>
			<path class="st17" d="M170.8,439.9c-1.2,0-2.3-0.8-2.6-2c-0.4-1.4,0.4-3,1.9-3.4c50.3-14.7,101.8-39.1,145-68.8
				c46.4-31.8,78.9-66.2,94.1-99.7c0.6-1.4,2.2-2,3.6-1.4c1.4,0.6,2,2.2,1.4,3.6c-15.6,34.4-48.7,69.6-95.9,102
				c-43.7,30-95.8,54.6-146.6,69.5C171.3,439.8,171,439.9,170.8,439.9z"/>
		</g>
		<g class="st18">
			<g>
				<path class="st17" d="M262.5,293.3H100.7c-1.3,0-2.3-1-2.3-2.3v-11.3c0-1.3,1-2.3,2.3-2.3h161.8c1.3,0,2.3,1,2.3,2.3V291
					C264.8,292.2,263.8,293.3,262.5,293.3z"/>
				
					<ellipse transform="matrix(0.1602 -0.9871 0.9871 0.1602 -216.8719 315.6302)" class="st17" cx="77.1" cy="285.3" rx="9.7" ry="9.7"/>
			</g>
			<g>
				<path class="st17" d="M262.5,323.2H100.7c-1.3,0-2.3-1-2.3-2.3v-11.3c0-1.3,1-2.3,2.3-2.3h161.8c1.3,0,2.3,1,2.3,2.3v11.3
					C264.8,322.1,263.8,323.2,262.5,323.2z"/>
				
					<ellipse transform="matrix(0.1602 -0.9871 0.9871 0.1602 -246.3629 340.7212)" class="st17" cx="77.1" cy="315.1" rx="9.7" ry="9.7"/>
			</g>
			<g>
				<path class="st17" d="M262.5,353H100.7c-1.3,0-2.3-1-2.3-2.3v-11.3c0-1.3,1-2.3,2.3-2.3h161.8c1.3,0,2.3,1,2.3,2.3v11.3
					C264.8,352,263.8,353,262.5,353z"/>
				
					<ellipse transform="matrix(0.1602 -0.9871 0.9871 0.1602 -275.8539 365.8123)" class="st17" cx="77.1" cy="345" rx="9.7" ry="9.7"/>
			</g>
			<g>
				<path class="st17" d="M262.5,382.9H100.7c-1.3,0-2.3-1-2.3-2.3v-11.3c0-1.3,1-2.3,2.3-2.3h161.8c1.3,0,2.3,1,2.3,2.3v11.3
					C264.8,381.9,263.8,382.9,262.5,382.9z"/>
				<circle class="st17" cx="77.1" cy="374.9" r="9.7"/>
			</g>
		</g>
	</g>
	<g>
		
			<linearGradient id="SVGID_15_" gradientUnits="userSpaceOnUse" x1="9049.125" y1="511.564" x2="8940.2988" y2="629.936" gradientTransform="matrix(-1 9.500000e-03 9.500000e-03 1 9464.042 -48.7782)">
			<stop  offset="0" style="stop-color:#2B3582"/>
			<stop  offset="1" style="stop-color:#150E42"/>
		</linearGradient>
		<path class="st19" d="M454.3,557.2c0,0,1.2,6.4,1.8,12.7c0.2,2.5-1.6,4.6-4.1,4.8c-8.4,0.4-26.4,1.3-32.9,1.1c-1,0-1.6-1-1.3-1.9
			c0.3-0.8,0.9-1.4,1.6-1.7l29.6-13.9L454.3,557.2z"/>
		
			<linearGradient id="SVGID_16_" gradientUnits="userSpaceOnUse" x1="9013.8018" y1="520.3545" x2="9023.4678" y2="520.3545" gradientTransform="matrix(-1 9.500000e-03 9.500000e-03 1 9464.042 -48.7782)">
			<stop  offset="0" style="stop-color:#F9B776"/>
			<stop  offset="1" style="stop-color:#F47960"/>
		</linearGradient>
		<path class="st20" d="M455.1,553.5l-0.8,7.6c0,0-5.2,2.5-8.8-0.2l2.1-8.5L455.1,553.5z"/>
		
			<linearGradient id="SVGID_17_" gradientUnits="userSpaceOnUse" x1="9057.6992" y1="377.6888" x2="8965.0928" y2="503.2052" gradientTransform="matrix(-1 9.500000e-03 9.500000e-03 1 9464.042 -48.7782)">
			<stop  offset="0" style="stop-color:#FDF53F"/>
			<stop  offset="1" style="stop-color:#D93C65"/>
		</linearGradient>
		<path class="st21" d="M453.1,410c0.4,2,3,99.4-7,143.2c-0.2,0.7,0.2,1.4,0.9,1.7c1.6,0.6,4.7,1.6,8.5,1.6c1.2,0,2.2-0.7,2.5-1.9
			c2.9-10.2,16.7-61.1,18.1-109.6c1.6-54.2,0-1.8,0-1.8l-1.5-33.5L453.1,410z"/>
		
			<linearGradient id="SVGID_18_" gradientUnits="userSpaceOnUse" x1="9024.7109" y1="489.1156" x2="8915.8809" y2="607.4926" gradientTransform="matrix(-1 9.500000e-03 9.500000e-03 1 9464.042 -48.7782)">
			<stop  offset="0" style="stop-color:#2B3582"/>
			<stop  offset="1" style="stop-color:#150E42"/>
		</linearGradient>
		<path class="st22" d="M488.5,560.2c0,0,1.8,3.2,3.6,11.7c0.3,1.5-0.7,3-2.3,3.2c-2.8,0.3-7,0.7-10.5,0.7c-1.6,0-2.8-1.4-2.6-2.9
			c0.3-3.1,1.5-8.3,5.1-12.3L488.5,560.2z"/>
		
			<linearGradient id="SVGID_19_" gradientUnits="userSpaceOnUse" x1="8978.9629" y1="519.8574" x2="8987.3086" y2="519.8574" gradientTransform="matrix(-1 9.500000e-03 9.500000e-03 1 9464.042 -48.7782)">
			<stop  offset="0" style="stop-color:#F9B776"/>
			<stop  offset="1" style="stop-color:#F47960"/>
		</linearGradient>
		<path class="st23" d="M490,550.4l-2,11.6c0,0-2.1,1.6-6.2,0.5l0.9-12.4L490,550.4z"/>
		
			<linearGradient id="SVGID_20_" gradientUnits="userSpaceOnUse" x1="9041.1943" y1="365.5115" x2="8948.5889" y2="491.0266" gradientTransform="matrix(-1 9.500000e-03 9.500000e-03 1 9464.042 -48.7782)">
			<stop  offset="0" style="stop-color:#FDF53F"/>
			<stop  offset="1" style="stop-color:#D93C65"/>
		</linearGradient>
		<path class="st24" d="M494.4,412.6c9,51.3-0.6,127.1-4,142c-0.2,0.9-0.9,1.6-1.8,1.8c-1.6,0.3-4.1,0.5-6.7-0.2
			c-0.9-0.2-1.5-1-1.5-1.9c-0.6-12-0.4-85.5-8.7-114.5c-0.4-1.5-1.3-2.7-2.6-3.6l-15.5-10.8l-1.4-17.7L494.4,412.6z"/>
		<g>
			<linearGradient id="SVGID_21_" gradientUnits="userSpaceOnUse" x1="443.3554" y1="375.7726" x2="511.3103" y2="305.3689">
				<stop  offset="0" style="stop-color:#CB236D"/>
				<stop  offset="1" style="stop-color:#4C246D"/>
			</linearGradient>
			<path class="st25" d="M439.1,315.7c25.5-0.7,53.8,6.2,53.8,6.2c8,44.3,2.2,95.6,2.2,95.6c-19.7,5.4-42.1-2.8-42.1-2.8
				c-3.5-18.5-19.3-70.6-19.3-70.6c-12.5-1.4-22.8-4.9-31.3-9.6c6.4-7.5,9.3-17.1,10.6-22.7C422.1,314.5,431.3,315.9,439.1,315.7z"
				/>
			
				<linearGradient id="SVGID_22_" gradientUnits="userSpaceOnUse" x1="9053.5898" y1="268.1614" x2="9102.9775" y2="268.1614" gradientTransform="matrix(-1 9.500000e-03 9.500000e-03 1 9464.042 -48.7782)">
				<stop  offset="0" style="stop-color:#F9B776"/>
				<stop  offset="1" style="stop-color:#F47960"/>
			</linearGradient>
			<path class="st26" d="M363.4,278.8c2.5-3.1,5.7-1.7,5.7-1.7c3.9,15.8,23.7,28.5,44,34.6c-1.3,5.6-4.2,15.2-10.6,22.7
				C368.7,315.9,363.4,278.8,363.4,278.8z"/>
		</g>
		<g>
			
				<linearGradient id="SVGID_23_" gradientUnits="userSpaceOnUse" x1="-1739.2416" y1="258.9517" x2="-1706.1022" y2="334.3511" gradientTransform="matrix(1 -9.500000e-03 9.500000e-03 1 2111.3159 22.0052)">
				<stop  offset="0" style="stop-color:#F9B776"/>
				<stop  offset="1" style="stop-color:#F47960"/>
			</linearGradient>
			<path class="st27" d="M364,279.6c-0.3,0.8,2.8,2.1,4.6-1.4c0-1.6,1-8.7,0-10c-5.3-7-15.4-15.8-15.4-15.8
				c-1.7,1.7-0.3,3.3-0.3,3.3l4.9,5.1c-1,1.9-2.2,3.4-2.8,5.7c-0.4,1.7-0.1,3.5,0.7,5c0.9,1.5,2.1,3.5,3.2,5.1
				C361,279.6,364,279.6,364,279.6z"/>
			
				<linearGradient id="SVGID_24_" gradientUnits="userSpaceOnUse" x1="9102.7412" y1="234.7734" x2="9116.5684" y2="213.513" gradientTransform="matrix(-1 9.500000e-03 9.500000e-03 1 9464.042 -48.7782)">
				<stop  offset="0" style="stop-color:#F9B776"/>
				<stop  offset="1" style="stop-color:#F47960"/>
			</linearGradient>
			<path class="st28" d="M359.9,264.1l4.5,3.7l1.4,3.8l-3.9,4.5c0,0-1.4-7.5-2.4-9.1C358.5,265.3,359,264.5,359.9,264.1z"/>
		</g>
		<linearGradient id="SVGID_25_" gradientUnits="userSpaceOnUse" x1="458.477" y1="390.3682" x2="526.4322" y2="319.9641">
			<stop  offset="0" style="stop-color:#CB236D"/>
			<stop  offset="1" style="stop-color:#4C246D"/>
		</linearGradient>
		<path class="st29" d="M483.4,346.7l9.6-24.8c0,0,24,16,28.1,36.5c-4.5,0.4-12.7,1.6-20.7,5.8C498.5,354.4,483.4,346.7,483.4,346.7
			z"/>
		
			<linearGradient id="SVGID_26_" gradientUnits="userSpaceOnUse" x1="8945.5215" y1="338.1105" x2="9008.0195" y2="338.1105" gradientTransform="matrix(-1 9.500000e-03 9.500000e-03 1 9464.042 -48.7782)">
			<stop  offset="0" style="stop-color:#F9B776"/>
			<stop  offset="1" style="stop-color:#F47960"/>
		</linearGradient>
		<path class="st30" d="M462.7,370.2c0,0,26.9,14.9,35.8,1.9c1.9-2.7,2.3-5.4,1.8-7.9c8-4.1,16.2-5.4,20.7-5.8
			c1.2,6.2,0.7,12.8-2.9,19.5c-15.6,29.1-58.9-1-58.9-1L462.7,370.2z"/>
		
			<linearGradient id="SVGID_27_" gradientUnits="userSpaceOnUse" x1="8993.5127" y1="271.2975" x2="9018.2236" y2="271.2975" gradientTransform="matrix(-1 9.500000e-03 9.500000e-03 1 9464.042 -48.7782)">
			<stop  offset="0" style="stop-color:#F9B776"/>
			<stop  offset="1" style="stop-color:#F47960"/>
		</linearGradient>
		<path class="st31" d="M464.8,294.7l8.3,23.4c0.1,0.4,0,0.8-0.4,1c-2.2,1.2-10.1,4.9-19.8-1.1c-1-0.6-1.7-1.7-1.9-2.8l-2.8-20.3
			L464.8,294.7z"/>
		<g>
			
				<linearGradient id="SVGID_28_" gradientUnits="userSpaceOnUse" x1="798.7241" y1="4030.7139" x2="789.4901" y2="4000.2578" gradientTransform="matrix(-0.7523 -0.6588 -0.6588 0.7523 3698.6831 -2213.5781)">
				<stop  offset="0" style="stop-color:#F9B776"/>
				<stop  offset="1" style="stop-color:#F47960"/>
			</linearGradient>
			<path class="st32" d="M446.9,273.1c0,0-8.8,16.9-7.6,23.7s12.3,6.2,21.9,0.6l6.6-18.2L446.9,273.1z"/>
			
				<linearGradient id="SVGID_29_" gradientUnits="userSpaceOnUse" x1="790.3938" y1="3977.6487" x2="798.1179" y2="4021.7048" gradientTransform="matrix(-0.7523 -0.6588 -0.6588 0.7523 3698.6831 -2213.5781)">
				<stop  offset="0" style="stop-color:#2B3582"/>
				<stop  offset="1" style="stop-color:#150E42"/>
			</linearGradient>
			<path class="st33" d="M460.7,288.4c-0.4-0.2-0.5-0.6-0.3-1c0.7-1.1,2-3.3,2.4-5.3c0,0,1.6-1-4.1-2.3c-5.7-1.3-14.2-3.3-16-8.2
				c-1.8-4.7,2.7-16.6,10-7.2c0.3,0.4,0.8,0.4,1.1,0c1.2-1.6,4.3-4.8,8.7-2.9c4.1,1.8,4.6,4.8,4.5,6.3c0,0.4,0.4,0.8,0.8,0.7
				c2.1-0.4,7-0.8,9.4,4.3c1.9,4.2,0.7,6.5-0.4,7.7c-0.4,0.4-0.2,1,0.3,1.1c1.4,0.4,3.1,1.5,3,4.7c-0.2,4.4-5.1,4.1-6.5,3.9
				c-0.2,0-0.5,0.1-0.6,0.2c-1.2,1.3-6.5,7-12.4,7.8c-0.5,0.1-0.9-0.4-0.7-0.9l2.5-7.4c0.1-0.3-0.1-0.7-0.4-0.9L460.7,288.4z"/>
			
				<linearGradient id="SVGID_30_" gradientUnits="userSpaceOnUse" x1="789.2848" y1="4030.5715" x2="780.9768" y2="4003.1699" gradientTransform="matrix(-0.7523 -0.6588 -0.6588 0.7523 3698.6831 -2213.5781)">
				<stop  offset="0" style="stop-color:#F9B776"/>
				<stop  offset="1" style="stop-color:#F47960"/>
			</linearGradient>
			<path class="st34" d="M459.7,289.5c0,0,6.3-4.4,6.8-0.8c0.5,3.7-5.7,5.4-8.7,4L459.7,289.5z"/>
		</g>
		<g>
			<g>
				
					<linearGradient id="SVGID_31_" gradientUnits="userSpaceOnUse" x1="8738.8467" y1="334.6033" x2="8773.333" y2="478.2968" gradientTransform="matrix(-1 0 0 1 9181.3223 0)">
					<stop  offset="0" style="stop-color:#2B3582"/>
					<stop  offset="1" style="stop-color:#150E42"/>
				</linearGradient>
				<path class="st35" d="M468.2,393.7l-14.7-51.2c-0.2-0.6-0.7-1-1.3-1.1c-2.7-0.3-10.4-1.2-19.2-1.9c-10.7-0.9-23.1-1.6-30.6-1
					c-1.1,0.1-1.7,1.2-1.2,2.2c4.2,8.5,21.6,43.3,30.3,54.7c0.3,0.4,0.7,0.6,1.2,0.6l34-0.3C467.8,395.6,468.5,394.6,468.2,393.7z"
					/>
				
					<linearGradient id="SVGID_32_" gradientUnits="userSpaceOnUse" x1="8715.2148" y1="372.6178" x2="8734.7549" y2="372.6178" gradientTransform="matrix(-1 0 0 1 9181.3223 0)">
					<stop  offset="0" style="stop-color:#F9B776"/>
					<stop  offset="1" style="stop-color:#F47960"/>
				</linearGradient>
				<path class="st36" d="M464.7,381.3c0,0,2-8.4,1.2-11.4c-0.8-3-2.4-6.8-7.7-6c-5.3,0.9-11.6,3.1-11.6,3.1s0.3,3.9,4.4,2.6
					l-2.5,1.9c0,0,0.4,3.1,3.8,1.4l-2.3,2.6c0,0,1.5,2.6,4,0.9S457.6,382.3,464.7,381.3z"/>
			</g>
			<linearGradient id="SVGID_33_" gradientUnits="userSpaceOnUse" x1="428.5776" y1="349.9293" x2="433.7316" y2="371.4043">
				<stop  offset="0" style="stop-color:#53D8FF"/>
				<stop  offset="1" style="stop-color:#3840F7"/>
			</linearGradient>
			<path class="st37" d="M434,354.7c0,2.4-1.9,4.3-4.3,4.3c-2.4,0-4.3-1.9-4.3-4.3c0-2.4,1.9-4.3,4.3-4.3
				C432.1,350.4,434,352.4,434,354.7z"/>
			<path class="st17" d="M451.9,357.6l-3-10.1c-0.4-1.2-1.4-2.2-2.6-2.4c-9.4-2-35-2.4-35.2-2.4l0-1.2c1.1,0,26,0.4,35.5,2.4
				c1.7,0.3,3,1.6,3.5,3.3l3,10.1L451.9,357.6z"/>
		</g>
	</g>
	<g>
		<linearGradient id="SVGID_34_" gradientUnits="userSpaceOnUse" x1="268.1717" y1="185.8802" x2="154.0869" y2="296.3242">
			<stop  offset="0" style="stop-color:#FDF53F"/>
			<stop  offset="1" style="stop-color:#D93C65"/>
		</linearGradient>
		<path class="st38" d="M222.8,180.6c-35.7,0-64.6,22.1-64.6,49.3c0,7.5,2.2,14.7,6.2,21.1c2,3.2,2.6,7,1.7,10.6
			c-1.8,7-0.8,16.1,7.2,26.9c1.5,2,4.8,1.3,5.2-1.2c0.6-3.1,1.6-7,3.3-10.8c1.6-3.5,5.7-5.2,9.3-3.6c9.4,4,20.2,6.3,31.7,6.3
			c35.7,0,64.6-22.1,64.6-49.3S258.5,180.6,222.8,180.6z"/>
		<g class="st39">
			
				<ellipse transform="matrix(0.331 -0.9436 0.9436 0.331 -85.3195 345.243)" class="st17" cx="200.8" cy="232.8" rx="6.1" ry="6.1"/>
			<g>
				
					<ellipse transform="matrix(0.7882 -0.6154 0.6154 0.7882 -96.0815 186.4036)" class="st17" cx="222.8" cy="232.8" rx="6.1" ry="6.1"/>
			</g>
			
				<ellipse transform="matrix(0.7071 -0.7071 0.7071 0.7071 -92.9317 241.2309)" class="st17" cx="244.7" cy="232.8" rx="6.1" ry="6.1"/>
		</g>
	</g>
	<g>
		<g>
			<linearGradient id="SVGID_35_" gradientUnits="userSpaceOnUse" x1="69.8662" y1="336.3514" x2="89.6915" y2="408.5727">
				<stop  offset="0" style="stop-color:#F9B776"/>
				<stop  offset="1" style="stop-color:#F47960"/>
			</linearGradient>
			<path class="st40" d="M85.5,383.2c-1.5,3.9-8.8,7.2-13,8.9c7.5,9,13.2,12.1,21,18.6l2.6,5.8l6-8.8
				C102.1,407.8,87.8,388.9,85.5,383.2z"/>
			<linearGradient id="SVGID_36_" gradientUnits="userSpaceOnUse" x1="146.8246" y1="520.3011" x2="97.9224" y2="593.6543">
				<stop  offset="0" style="stop-color:#CB236D"/>
				<stop  offset="1" style="stop-color:#4C246D"/>
			</linearGradient>
			<path class="st41" d="M128.5,572.6c0-0.2,0-0.4-0.1-0.5c-2.7-10.7-16-17.3-16-17.3l-5.3,0.4c-3,9.4-2.7,15.2-2.2,17.7
				c0,0.1,0,0.1,0.1,0.2C109.3,573.5,118.3,573.7,128.5,572.6z"/>
			
				<linearGradient id="SVGID_37_" gradientUnits="userSpaceOnUse" x1="-2083.7725" y1="535.8991" x2="-2170.698" y2="604.1533" gradientTransform="matrix(1 0 0 1 2248.1689 0)">
				<stop  offset="0" style="stop-color:#2B3582"/>
				<stop  offset="1" style="stop-color:#150E42"/>
			</linearGradient>
			<path class="st42" d="M105,573.1c0.2,0.9,0.9,1.5,1.7,1.7c6.2,1.3,16.1,0.3,20.2-0.3c0.9-0.1,1.6-1,1.6-1.9
				C118.3,573.7,109.3,573.5,105,573.1z"/>
			
				<linearGradient id="SVGID_38_" gradientUnits="userSpaceOnUse" x1="-2136.9443" y1="536.8848" x2="-2141.5083" y2="576.7173" gradientTransform="matrix(1 0 0 1 2248.1689 0)">
				<stop  offset="0" style="stop-color:#F9B776"/>
				<stop  offset="1" style="stop-color:#F47960"/>
			</linearGradient>
			<path class="st43" d="M104.9,547.3l2.2,10.8c0.2,0.8,0.8,1.4,1.5,1.5c0.9,0.1,2.2,0.1,3.5-0.1c1.2-0.2,2-1.3,1.8-2.6l-1.6-9.6
				H104.9z"/>
			
				<linearGradient id="SVGID_39_" gradientUnits="userSpaceOnUse" x1="-2068.3311" y1="555.5651" x2="-2155.2563" y2="623.8191" gradientTransform="matrix(1 0 0 1 2248.1689 0)">
				<stop  offset="0" style="stop-color:#2B3582"/>
				<stop  offset="1" style="stop-color:#150E42"/>
			</linearGradient>
			<path class="st44" d="M151.4,573c-5.8-0.2-8.9-0.9-10.4-1.5c0,0.6,0,1.2,0,1.8c0,0.7,0.5,1.2,1.1,1.2l32.1-0.2
				c1,0,1.6-1.2,1.2-2.1C171.1,572.5,160.4,573.2,151.4,573z"/>
			<linearGradient id="SVGID_40_" gradientUnits="userSpaceOnUse" x1="176.0366" y1="539.7758" x2="127.1344" y2="613.1291">
				<stop  offset="0" style="stop-color:#CB236D"/>
				<stop  offset="1" style="stop-color:#4C246D"/>
			</linearGradient>
			<path class="st45" d="M175.4,572.1c0-0.1-0.1-0.2-0.1-0.2c-2.8-4-10.1-11.8-24.3-15.3l-6.8-0.2c0,0-3,5.3-3.1,15.1
				c1.6,0.6,4.6,1.3,10.4,1.5C160.4,573.2,171.1,572.5,175.4,572.1z"/>
			
				<linearGradient id="SVGID_41_" gradientUnits="userSpaceOnUse" x1="-2099.7666" y1="541.145" x2="-2104.3306" y2="580.9769" gradientTransform="matrix(1 0 0 1 2248.1689 0)">
				<stop  offset="0" style="stop-color:#F9B776"/>
				<stop  offset="1" style="stop-color:#F47960"/>
			</linearGradient>
			<path class="st46" d="M142.8,546c0.1,0.5,1,8.3,1.4,11.3c0.1,0.7,0.6,1.3,1.3,1.3c1.2,0.1,3.1,0.3,4.7-0.1c0.9-0.2,1.5-1,1.5-2
				v-12.2L142.8,546z"/>
			
				<linearGradient id="SVGID_42_" gradientUnits="userSpaceOnUse" x1="-2007.9336" y1="300.6492" x2="-2153.9094" y2="527.1638" gradientTransform="matrix(1 0 0 1 2248.1689 0)">
				<stop  offset="0" style="stop-color:#2B3582"/>
				<stop  offset="1" style="stop-color:#150E42"/>
			</linearGradient>
			<path class="st47" d="M137.3,404.5c0,0,16.5,62.7,16.2,141.7c0,1.4-1,2.7-2.4,3c-2.1,0.4-5.1,1-7.7,0.9c-1.3,0-2.5-1-2.7-2.4
				c-2.3-13.6-15.6-90-23.2-102.4c0,0-5,68.1-3.4,103.4c0,0.9-0.6,1.6-1.5,1.7c-1.3,0.2-3.4,0.3-6.1,0c-1-0.1-1.9-0.9-2-1.9
				c-1.6-11.5-11.1-79.9-10.7-129.1c0-2.8,7.3-14.9,7.3-14.9H137.3z"/>
			<linearGradient id="SVGID_43_" gradientUnits="userSpaceOnUse" x1="146.8373" y1="306.0531" x2="12.827" y2="505.6583">
				<stop  offset="0" style="stop-color:#CB236D"/>
				<stop  offset="1" style="stop-color:#4C246D"/>
			</linearGradient>
			<path class="st48" d="M160.3,328.6c-2.7-3.4-5-7-7-10.7c-2.7-5.2-0.2,3.4-1-2.5c-20.5-14.8-51.4-7.3-63.4-5.8
				c-3.9,0.5-7.5,2.4-10.1,5.4c-10.2,11.9-24.5,40.9-6.3,77c2.4,0.7,11.8-4.2,13-8.9c-1.3-8.2-1.4-18.7,1.5-31.2c0.2,1,0.5,2,0.8,3
				c8.5,26.8,8.9,49.1,8.9,54.2c0,0.7,0.4,1.3,1.1,1.6c11.1,4.5,32.6,1.8,39.8,0.7c1.3-0.2,2.2-1.4,2-2.7
				c-3.5-25.6,14.6-67.7,19.4-78.2C159.2,329.9,159.7,329.2,160.3,328.6z"/>
			
				<linearGradient id="SVGID_44_" gradientUnits="userSpaceOnUse" x1="-2126.8613" y1="282.2488" x2="-2144.2878" y2="357.5564" gradientTransform="matrix(1 0 0 1 2248.1689 0)">
				<stop  offset="0" style="stop-color:#F9B776"/>
				<stop  offset="1" style="stop-color:#F47960"/>
			</linearGradient>
			<path class="st49" d="M108.1,288.1L106,310c0,0,12.3,3.7,21.3-2.6l-6.3-19.9L108.1,288.1z"/>
			<g>
				
					<linearGradient id="SVGID_45_" gradientUnits="userSpaceOnUse" x1="-3213.2197" y1="-2606.3799" x2="-3244.1367" y2="-2565.4792" gradientTransform="matrix(0.6854 -0.7281 0.7281 0.6854 4218.4658 -285.4628)">
					<stop  offset="0" style="stop-color:#F9B776"/>
					<stop  offset="1" style="stop-color:#F47960"/>
				</linearGradient>
				<path class="st50" d="M122.4,263.1c0.3,0.3,12.5,24.3,12.5,24.3l-13.9,6.7l-15-21C106.1,273.1,117.5,258.5,122.4,263.1z"/>
				
					<linearGradient id="SVGID_46_" gradientUnits="userSpaceOnUse" x1="-3236.8315" y1="-2596.5576" x2="-3199.9009" y2="-2596.5576" gradientTransform="matrix(0.6854 -0.7281 0.7281 0.6854 4218.4658 -285.4628)">
					<stop  offset="0" style="stop-color:#2B3582"/>
					<stop  offset="1" style="stop-color:#150E42"/>
				</linearGradient>
				<path class="st51" d="M112.3,273.7c-0.2,0.6-0.2,1.4,0.2,1.9l6.9,11.5c0.1,0.2,0.2,0.3,0.4,0.5c0.8,0.8,3.6,3,5.8,0
					c1.9-2.6,3.6-4.9,5.5-5.9c1.1-0.6,2.4-0.1,3,1c1.1,2.3,3.3,6.9,4.7,11.2c0.3,1.1-0.2,2.3-1.3,2.7c-2.8,1.1-8.4,3.2-13.3,3.9
					c-0.8,0.1-1.6-0.2-2.1-0.9c-2.1-2.9-8.1-11-10.1-13c-1.9-1.9-5.4-1.2-7-0.7c-0.6,0.2-1.2,0.1-1.8-0.2c-1.6-1-4.4-3.4-1.8-7.4
					c0.6-1,0.3-2.4-0.7-3c-1.8-1.2-3.7-3.4-1.9-6.9c1.9-3.6,5.2-3.9,7.5-3.7c1,0.1,2-0.4,2.4-1.3c0.2-0.4,0.5-0.8,1.1-0.9
					c1.2-0.2,2-1.3,1.7-2.5c-0.4-2-0.1-4.7,3.2-6.5c6-3.3,11.2,2.1,12.6,6.6c1.3,4.5-5.4,7.7-9.6,8.3
					C114.6,268.5,113,271.9,112.3,273.7z"/>
				
					<linearGradient id="SVGID_47_" gradientUnits="userSpaceOnUse" x1="-3258.501" y1="-2573.99" x2="-3233.7031" y2="-2599.4316" gradientTransform="matrix(0.6854 -0.7281 0.7281 0.6854 4218.4658 -285.4628)">
					<stop  offset="0" style="stop-color:#F9B776"/>
					<stop  offset="1" style="stop-color:#F47960"/>
				</linearGradient>
				<path class="st52" d="M114.5,290.7c0,0-2.7-7.8-6.1-7.5c-3.4,0.3-6.1,3.7-1.9,7.5C111.9,295.5,114.5,290.7,114.5,290.7z"/>
			</g>
			<linearGradient id="SVGID_48_" gradientUnits="userSpaceOnUse" x1="246.7173" y1="162.9706" x2="28.0685" y2="397.1361">
				<stop  offset="0" style="stop-color:#CB236D"/>
				<stop  offset="1" style="stop-color:#4C246D"/>
			</linearGradient>
			<path class="st53" d="M85.9,350c-4.5-12.3-2.9-27.1-2.8-27.3l1.2,0.1c0,0.1-1.6,14.7,2.8,26.7L85.9,350z"/>
			
				<linearGradient id="SVGID_49_" gradientUnits="userSpaceOnUse" x1="-2127.4043" y1="419.8221" x2="-2139.6443" y2="441.6052" gradientTransform="matrix(1 0 0 1 2248.1689 0)">
				<stop  offset="0" style="stop-color:#2B3582"/>
				<stop  offset="1" style="stop-color:#150E42"/>
			</linearGradient>
			<path class="st54" d="M117,443.7c-0.3,0-0.5-0.2-0.6-0.5c-1.4-5.3-11.6-11.1-11.7-11.1c-0.3-0.2-0.4-0.5-0.2-0.8
				c0.2-0.3,0.5-0.4,0.8-0.2c0.4,0.2,10.8,6.1,12.3,11.9c0.1,0.3-0.1,0.7-0.4,0.8C117.1,443.7,117,443.7,117,443.7z"/>
			<g>
				<linearGradient id="SVGID_50_" gradientUnits="userSpaceOnUse" x1="170.5906" y1="322.0005" x2="36.5801" y2="521.606">
					<stop  offset="0" style="stop-color:#CB236D"/>
					<stop  offset="1" style="stop-color:#4C246D"/>
				</linearGradient>
				<path class="st55" d="M201.9,335.5c-23.2,3.5-38.4-11.2-49.6-20.1c-14.9-11.7-26.5-6-26.5-6l15.9,30.3
					c23.7,22.4,48,17.4,63.4,10.1C205.3,344,203.7,339.1,201.9,335.5z"/>
				
					<linearGradient id="SVGID_51_" gradientUnits="userSpaceOnUse" x1="-2757.7651" y1="280.4089" x2="-2864.406" y2="416.8464" gradientTransform="matrix(1 0 0 1 3015.9375 0)">
					<stop  offset="0" style="stop-color:#F9B776"/>
					<stop  offset="1" style="stop-color:#F47960"/>
				</linearGradient>
				<path class="st56" d="M234.6,321.7l-7.7,4.1c-9.2,5.6-17.5,8.6-24.9,9.7c1.8,3.6,3.4,8.5,3.1,14.4c9.8-4.6,15.9-10.1,15.9-10.1
					C238.4,329.3,234.6,321.7,234.6,321.7z"/>
			</g>
			
				<linearGradient id="SVGID_52_" gradientUnits="userSpaceOnUse" x1="-2743.4932" y1="291.5638" x2="-2850.134" y2="428.0013" gradientTransform="matrix(1 0 0 1 3015.9375 0)">
				<stop  offset="0" style="stop-color:#F9B776"/>
				<stop  offset="1" style="stop-color:#F47960"/>
			</linearGradient>
			<path class="st57" d="M257.3,332.5c-0.5-1.7-1.7-3-3.3-3.6l-15.6-6.3c0,0-0.2-2,3.3-3.4c3.5-1.4,2.7-5.3,2.7-5.3
				s-4.8,2.2-11.9,5.7c-4,2-6.3,5.5-7.5,8.2l4,5.3c9.6,2.9,19.4,3.4,29.2,2.3L257.3,332.5z"/>
		</g>
		<g>
			<linearGradient id="SVGID_53_" gradientUnits="userSpaceOnUse" x1="101.0774" y1="517.4065" x2="100.0948" y2="426.6749">
				<stop  offset="0" style="stop-color:#CB236D"/>
				<stop  offset="1" style="stop-color:#4C246D"/>
			</linearGradient>
			<path class="st58" d="M62.6,446.7l0.8,24.8c0.1,4.3,3.7,7.8,8,7.8l59.5,0.4c2.9,0,5.4-2.1,5.8-5c0.9-6.3,2.1-17.5,0.8-28H62.6z"
				/>
			<path class="st17" d="M128.8,478.1L128.8,478.1l-0.4,0c0,0-0.1,0-0.1-0.1c0,0,0-0.1,0.1-0.1h0l0.4,0
				C128.9,478,128.9,478,128.8,478.1C128.9,478.1,128.9,478.1,128.8,478.1z M129.8,478.1C129.8,478.1,129.8,478.1,129.8,478.1
				c-0.1-0.1,0-0.1,0-0.1c0.1,0,0.3,0,0.4,0c0,0,0.1,0,0.1,0.1c0,0,0,0.1-0.1,0.1C130.1,478.1,130,478.1,129.8,478.1
				C129.8,478.1,129.8,478.1,129.8,478.1z M127.4,478.1C127.4,478.1,127.4,478.1,127.4,478.1l-0.4,0c0,0-0.1,0-0.1-0.1
				c0,0,0-0.1,0.1-0.1c0,0,0,0,0,0l0.4,0C127.4,478,127.4,478,127.4,478.1C127.4,478.1,127.4,478.1,127.4,478.1z M125.9,478.1
				L125.9,478.1l-0.4,0c0,0-0.1,0-0.1-0.1c0,0,0-0.1,0.1-0.1h0l0.4,0C126,478,126,478,125.9,478.1C126,478.1,126,478.1,125.9,478.1z
				 M124.5,478.1L124.5,478.1l-0.4,0c0,0-0.1,0-0.1-0.1c0,0,0-0.1,0.1-0.1l0.4,0C124.5,477.9,124.6,478,124.5,478.1
				C124.6,478.1,124.5,478.1,124.5,478.1z M123,478.1L123,478.1l-0.4,0c0,0-0.1,0-0.1-0.1c0,0,0-0.1,0.1-0.1h0l0.4,0
				C123.1,477.9,123.1,478,123,478.1C123.1,478.1,123.1,478.1,123,478.1z M121.6,478.1L121.6,478.1l-0.4,0c0,0-0.1,0-0.1-0.1
				c0,0,0-0.1,0.1-0.1l0.4,0C121.6,477.9,121.7,478,121.6,478.1C121.7,478,121.6,478.1,121.6,478.1z M120.2,478.1L120.2,478.1
				l-0.4,0c0,0-0.1,0-0.1-0.1c0,0,0-0.1,0.1-0.1h0l0.4,0C120.2,477.9,120.2,478,120.2,478.1C120.2,478,120.2,478.1,120.2,478.1z
				 M118.7,478.1L118.7,478.1l-0.4,0c0,0-0.1,0-0.1-0.1c0,0,0-0.1,0.1-0.1h0l0.4,0C118.7,477.9,118.8,477.9,118.7,478.1
				C118.8,478,118.7,478.1,118.7,478.1z M117.3,478.1L117.3,478.1l-0.4,0c0,0-0.1,0-0.1-0.1c0,0,0-0.1,0.1-0.1c0,0,0,0,0,0l0.4,0
				C117.3,477.9,117.3,477.9,117.3,478.1C117.3,478,117.3,478.1,117.3,478.1z M115.8,478L115.8,478l-0.4,0c0,0-0.1,0-0.1-0.1
				c0,0,0-0.1,0.1-0.1h0l0.4,0C115.9,477.9,115.9,477.9,115.8,478C115.9,478,115.9,478,115.8,478z M114.4,478
				C114.4,478,114.4,478,114.4,478l-0.4,0c0,0-0.1,0-0.1-0.1c0,0,0-0.1,0.1-0.1h0l0.4,0C114.4,477.9,114.4,477.9,114.4,478
				C114.4,478,114.4,478,114.4,478z M112.9,478C112.9,478,112.9,478,112.9,478l-0.4,0c0,0-0.1,0-0.1-0.1c0,0,0-0.1,0.1-0.1
				c0,0,0,0,0,0l0.4,0C113,477.9,113,477.9,112.9,478C113,478,113,478,112.9,478z M111.5,478C111.5,478,111.5,478,111.5,478l-0.4,0
				c0,0-0.1,0-0.1-0.1c0,0,0-0.1,0.1-0.1c0,0,0,0,0,0l0.4,0C111.5,477.9,111.6,477.9,111.5,478C111.6,478,111.5,478,111.5,478z
				 M110,478C110,478,110,478,110,478l-0.4,0c0,0-0.1,0-0.1-0.1c0,0,0-0.1,0.1-0.1h0l0.4,0C110.1,477.9,110.1,477.9,110,478
				C110.1,478,110.1,478,110,478z M108.6,478C108.6,478,108.6,478,108.6,478l-0.4,0c0,0-0.1,0-0.1-0.1c0,0,0-0.1,0.1-0.1
				c0,0,0,0,0,0l0.4,0C108.6,477.9,108.7,477.9,108.6,478C108.7,478,108.6,478,108.6,478z M107.2,478L107.2,478l-0.4,0
				c0,0-0.1,0-0.1-0.1c0,0,0-0.1,0.1-0.1l0.4,0C107.2,477.8,107.2,477.9,107.2,478C107.2,478,107.2,478,107.2,478z M105.7,478
				L105.7,478l-0.4,0c0,0-0.1,0-0.1-0.1c0,0,0-0.1,0.1-0.1h0l0.4,0C105.8,477.8,105.8,477.9,105.7,478
				C105.8,478,105.8,478,105.7,478z M104.3,478L104.3,478l-0.4,0c0,0-0.1,0-0.1-0.1s0-0.1,0.1-0.1l0.4,0
				C104.3,477.8,104.3,477.9,104.3,478C104.3,477.9,104.3,478,104.3,478z M102.8,478L102.8,478l-0.4,0c0,0-0.1,0-0.1-0.1
				c0,0,0-0.1,0.1-0.1h0l0.4,0C102.9,477.8,102.9,477.9,102.8,478C102.9,477.9,102.9,478,102.8,478z M101.4,478L101.4,478l-0.4,0
				c0,0-0.1,0-0.1-0.1c0,0,0-0.1,0.1-0.1l0.4,0C101.4,477.8,101.5,477.8,101.4,478C101.5,477.9,101.4,478,101.4,478z M99.9,477.9
				L99.9,477.9l-0.4,0c0,0-0.1,0-0.1-0.1c0,0,0-0.1,0.1-0.1h0l0.4,0C100,477.8,100,477.8,99.9,477.9C100,477.9,100,477.9,99.9,477.9
				z M98.5,477.9L98.5,477.9l-0.4,0c0,0-0.1,0-0.1-0.1c0,0,0-0.1,0.1-0.1h0l0.4,0C98.5,477.8,98.6,477.8,98.5,477.9
				C98.6,477.9,98.5,477.9,98.5,477.9z M97.1,477.9C97.1,477.9,97.1,477.9,97.1,477.9l-0.4,0c0,0-0.1,0-0.1-0.1c0,0,0-0.1,0.1-0.1h0
				l0.4,0C97.1,477.8,97.1,477.8,97.1,477.9C97.1,477.9,97.1,477.9,97.1,477.9z M95.6,477.9L95.6,477.9l-0.4,0c0,0-0.1,0-0.1-0.1
				c0,0,0-0.1,0.1-0.1h0l0.4,0C95.6,477.8,95.7,477.8,95.6,477.9C95.7,477.9,95.6,477.9,95.6,477.9z M94.2,477.9
				C94.2,477.9,94.2,477.9,94.2,477.9l-0.4,0c0,0-0.1,0-0.1-0.1c0,0,0-0.1,0.1-0.1c0,0,0,0,0,0l0.4,0
				C94.2,477.8,94.2,477.8,94.2,477.9C94.2,477.9,94.2,477.9,94.2,477.9z M92.7,477.9C92.7,477.9,92.7,477.9,92.7,477.9l-0.4,0
				c0,0-0.1,0-0.1-0.1c0,0,0-0.1,0.1-0.1c0,0,0,0,0,0l0.4,0C92.8,477.8,92.8,477.8,92.7,477.9C92.8,477.9,92.8,477.9,92.7,477.9z
				 M91.3,477.9C91.3,477.9,91.3,477.9,91.3,477.9l-0.4,0c0,0-0.1,0-0.1-0.1c0,0,0-0.1,0.1-0.1h0l0.4,0
				C91.3,477.8,91.4,477.8,91.3,477.9C91.3,477.9,91.3,477.9,91.3,477.9z M89.8,477.9C89.8,477.9,89.8,477.9,89.8,477.9l-0.4,0
				c0,0-0.1,0-0.1-0.1c0,0,0-0.1,0.1-0.1c0,0,0,0,0,0l0.4,0C89.9,477.7,89.9,477.8,89.8,477.9C89.9,477.9,89.9,477.9,89.8,477.9z
				 M88.4,477.9L88.4,477.9l-0.4,0c0,0-0.1,0-0.1-0.1c0,0,0-0.1,0.1-0.1c0,0,0,0,0,0l0.4,0C88.4,477.7,88.5,477.8,88.4,477.9
				C88.5,477.8,88.4,477.9,88.4,477.9z M86.9,477.9C86.9,477.9,86.9,477.9,86.9,477.9l-0.4,0c0,0-0.1,0-0.1-0.1c0,0,0-0.1,0.1-0.1
				l0.4,0C87,477.7,87,477.8,86.9,477.9C87,477.8,87,477.9,86.9,477.9z M85.5,477.9L85.5,477.9l-0.4,0c0,0-0.1,0-0.1-0.1
				c0,0,0-0.1,0.1-0.1h0l0.4,0C85.5,477.7,85.6,477.8,85.5,477.9C85.6,477.8,85.5,477.9,85.5,477.9z M84.1,477.9L84.1,477.9l-0.4,0
				c0,0-0.1,0-0.1-0.1c0,0,0-0.1,0.1-0.1l0.4,0C84.1,477.7,84.1,477.7,84.1,477.9C84.1,477.8,84.1,477.9,84.1,477.9z M82.6,477.8
				L82.6,477.8l-0.4,0c0,0-0.1,0-0.1-0.1c0,0,0-0.1,0.1-0.1h0l0.4,0C82.7,477.7,82.7,477.7,82.6,477.8
				C82.7,477.8,82.7,477.8,82.6,477.8z M131.2,477.8C131.2,477.8,131.2,477.8,131.2,477.8c-0.1-0.1-0.1-0.1,0-0.1
				c0.1,0,0.3-0.1,0.4-0.2c0,0,0.1,0,0.1,0c0,0,0,0.1,0,0.1C131.5,477.7,131.4,477.8,131.2,477.8
				C131.3,477.8,131.2,477.8,131.2,477.8z M81.2,477.8L81.2,477.8l-0.4,0c0,0-0.1,0-0.1-0.1c0,0,0-0.1,0.1-0.1l0.4,0
				C81.2,477.7,81.2,477.7,81.2,477.8C81.2,477.8,81.2,477.8,81.2,477.8z M79.7,477.8L79.7,477.8l-0.4,0c0,0-0.1,0-0.1-0.1
				c0,0,0-0.1,0.1-0.1h0l0.4,0C79.8,477.7,79.8,477.7,79.7,477.8C79.8,477.8,79.8,477.8,79.7,477.8z M78.3,477.8L78.3,477.8l-0.4,0
				c0,0-0.1,0-0.1-0.1c0,0,0-0.1,0.1-0.1h0l0.4,0C78.3,477.7,78.4,477.7,78.3,477.8C78.4,477.8,78.3,477.8,78.3,477.8z M76.8,477.8
				L76.8,477.8l-0.4,0c0,0-0.1,0-0.1-0.1c0,0,0-0.1,0.1-0.1h0l0.4,0C76.9,477.7,76.9,477.7,76.8,477.8
				C76.9,477.8,76.9,477.8,76.8,477.8z M75.4,477.8L75.4,477.8l-0.4,0c0,0-0.1,0-0.1-0.1c0,0,0-0.1,0.1-0.1h0l0.4,0
				C75.4,477.7,75.5,477.7,75.4,477.8C75.5,477.8,75.4,477.8,75.4,477.8z M74,477.8L74,477.8l-0.4,0c0,0-0.1,0-0.1-0.1
				c0,0,0-0.1,0.1-0.1c0,0,0,0,0,0l0.4,0C74,477.7,74,477.7,74,477.8C74,477.8,74,477.8,74,477.8z M72.5,477.8
				C72.5,477.8,72.5,477.8,72.5,477.8c-0.1,0-0.3,0-0.4,0c0,0-0.1,0-0.1-0.1c0,0,0-0.1,0.1-0.1c0.1,0,0.3,0,0.4,0
				C72.6,477.6,72.6,477.7,72.5,477.8C72.6,477.7,72.5,477.8,72.5,477.8z M71.1,477.6C71.1,477.6,71.1,477.6,71.1,477.6
				c-0.2,0-0.3-0.1-0.4-0.1c0,0-0.1-0.1,0-0.1c0,0,0.1-0.1,0.1,0c0.1,0,0.3,0.1,0.4,0.1C71.1,477.4,71.2,477.5,71.1,477.6
				C71.1,477.6,71.1,477.6,71.1,477.6z M132.5,477.2C132.5,477.2,132.5,477.2,132.5,477.2c-0.1-0.1-0.1-0.1,0-0.1
				c0.1-0.1,0.2-0.2,0.3-0.2c0,0,0.1,0,0.1,0c0,0,0,0.1,0,0.1C132.8,477,132.7,477.1,132.5,477.2
				C132.6,477.2,132.5,477.2,132.5,477.2z M69.7,477.1C69.7,477.1,69.7,477.1,69.7,477.1c-0.2-0.1-0.3-0.1-0.4-0.2c0,0,0-0.1,0-0.1
				c0,0,0.1,0,0.1,0c0.1,0.1,0.3,0.1,0.4,0.2C69.8,477,69.8,477,69.7,477.1C69.8,477.1,69.7,477.1,69.7,477.1z M68.5,476.4
				C68.5,476.4,68.4,476.4,68.5,476.4c-0.2-0.1-0.3-0.2-0.4-0.3c0,0,0-0.1,0-0.1c0,0,0.1,0,0.1,0c0.1,0.1,0.2,0.2,0.3,0.3
				C68.5,476.3,68.6,476.3,68.5,476.4C68.5,476.4,68.5,476.4,68.5,476.4z M133.6,476.3C133.6,476.3,133.6,476.3,133.6,476.3
				c-0.1,0-0.1-0.1-0.1-0.1c0.1-0.1,0.2-0.2,0.3-0.3c0,0,0.1,0,0.1,0c0,0,0,0.1,0,0.1C133.9,476,133.8,476.1,133.6,476.3
				C133.7,476.3,133.6,476.3,133.6,476.3z M67.4,475.5C67.4,475.5,67.3,475.5,67.4,475.5c-0.2-0.1-0.3-0.2-0.3-0.3c0,0,0-0.1,0-0.1
				c0,0,0.1,0,0.1,0c0.1,0.1,0.2,0.2,0.3,0.3C67.5,475.4,67.5,475.4,67.4,475.5C67.4,475.5,67.4,475.5,67.4,475.5z M134.4,475.1
				C134.4,475.1,134.4,475.1,134.4,475.1c-0.1,0-0.1-0.1-0.1-0.1c0.1-0.1,0.1-0.3,0.2-0.4c0,0,0.1-0.1,0.1,0c0,0,0.1,0.1,0,0.1
				C134.6,474.8,134.6,474.9,134.4,475.1C134.5,475.1,134.5,475.1,134.4,475.1z M66.5,474.3C66.4,474.3,66.4,474.3,66.5,474.3
				c-0.1-0.2-0.2-0.3-0.3-0.4c0,0,0-0.1,0-0.1c0,0,0.1,0,0.1,0c0.1,0.1,0.1,0.2,0.2,0.4C66.5,474.3,66.5,474.3,66.5,474.3
				C66.5,474.3,66.5,474.3,66.5,474.3z M134.9,473.7C134.9,473.7,134.9,473.7,134.9,473.7C134.9,473.7,134.8,473.7,134.9,473.7
				c0-0.2,0-0.3,0-0.4l0-0.1c0,0,0-0.1,0.1-0.1c0,0,0.1,0,0.1,0.1l0,0.1C135,473.5,135,473.6,134.9,473.7
				C135,473.7,134.9,473.7,134.9,473.7z M65.8,473.1C65.8,473.1,65.7,473,65.8,473.1c-0.1-0.2-0.2-0.3-0.2-0.5c0,0,0-0.1,0-0.1
				c0,0,0.1,0,0.1,0c0,0.1,0.1,0.3,0.2,0.4C65.9,473,65.9,473,65.8,473.1C65.8,473.1,65.8,473.1,65.8,473.1z M135.1,472.3
				C135.1,472.3,135.1,472.3,135.1,472.3C135.1,472.3,135.1,472.3,135.1,472.3c-0.1-0.2,0-0.4,0-0.5c0,0,0-0.1,0.1-0.1
				c0,0,0.1,0,0.1,0.1C135.2,472,135.2,472.1,135.1,472.3C135.2,472.3,135.2,472.3,135.1,472.3z M65.4,471.7
				C65.3,471.7,65.3,471.7,65.4,471.7c-0.1-0.2-0.1-0.3-0.1-0.5c0,0,0-0.1,0.1-0.1c0,0,0.1,0,0.1,0.1
				C65.4,471.3,65.4,471.5,65.4,471.7C65.4,471.6,65.4,471.7,65.4,471.7C65.4,471.7,65.4,471.7,65.4,471.7z M135.3,470.9
				C135.3,470.9,135.3,470.9,135.3,470.9C135.3,470.9,135.2,470.8,135.3,470.9l0-0.5c0,0,0-0.1,0.1-0.1c0,0,0.1,0,0.1,0.1
				L135.3,470.9C135.4,470.8,135.4,470.9,135.3,470.9z M65.2,470.3C65.2,470.3,65.1,470.2,65.2,470.3l-0.1-0.5c0,0,0-0.1,0.1-0.1
				c0,0,0.1,0,0.1,0.1L65.2,470.3C65.3,470.2,65.2,470.3,65.2,470.3C65.2,470.3,65.2,470.3,65.2,470.3z M135.5,469.4
				C135.5,469.4,135.5,469.4,135.5,469.4C135.4,469.4,135.4,469.4,135.5,469.4c-0.1-0.2,0-0.4,0-0.5c0,0,0-0.1,0.1-0.1
				c0,0,0.1,0,0.1,0.1C135.6,469.1,135.6,469.2,135.5,469.4C135.6,469.4,135.5,469.4,135.5,469.4z M65.2,468.8
				C65.1,468.8,65.1,468.8,65.2,468.8l-0.1-0.5c0,0,0-0.1,0.1-0.1c0,0,0.1,0,0.1,0.1L65.2,468.8C65.2,468.8,65.2,468.8,65.2,468.8
				C65.2,468.8,65.2,468.8,65.2,468.8z M135.7,468C135.7,468,135.6,468,135.7,468C135.6,468,135.6,468,135.7,468
				c-0.1-0.2,0-0.4,0-0.5c0,0,0-0.1,0.1-0.1c0,0,0.1,0,0.1,0.1C135.8,467.6,135.7,467.8,135.7,468C135.7,468,135.7,468,135.7,468z
				 M65.1,467.4C65.1,467.4,65,467.3,65.1,467.4l-0.1-0.5c0,0,0-0.1,0.1-0.1c0,0,0.1,0,0.1,0.1L65.1,467.4
				C65.2,467.3,65.1,467.4,65.1,467.4C65.1,467.4,65.1,467.4,65.1,467.4z M135.8,466.6C135.8,466.6,135.8,466.6,135.8,466.6
				C135.7,466.6,135.7,466.5,135.8,466.6c-0.1-0.2,0-0.4,0-0.5c0,0,0-0.1,0.1-0.1c0,0,0.1,0,0.1,0.1
				C135.9,466.2,135.9,466.4,135.8,466.6C135.9,466.5,135.8,466.6,135.8,466.6z M65.1,465.9C65,465.9,65,465.9,65.1,465.9l-0.1-0.5
				c0,0,0-0.1,0.1-0.1c0,0,0.1,0,0.1,0.1L65.1,465.9C65.1,465.9,65.1,465.9,65.1,465.9C65.1,465.9,65.1,465.9,65.1,465.9z
				 M135.9,465.1C135.9,465.1,135.9,465.1,135.9,465.1C135.9,465.1,135.8,465.1,135.9,465.1l0-0.5c0,0,0-0.1,0.1-0.1
				c0,0,0.1,0,0.1,0.1L135.9,465.1C136,465.1,136,465.1,135.9,465.1z M65,464.5C65,464.5,64.9,464.5,65,464.5l-0.1-0.5
				c0,0,0-0.1,0.1-0.1c0,0,0.1,0,0.1,0.1L65,464.5C65.1,464.4,65.1,464.5,65,464.5C65,464.5,65,464.5,65,464.5z M136,463.7
				C136,463.7,136,463.7,136,463.7C136,463.7,136,463.6,136,463.7l0-0.5c0,0,0-0.1,0.1-0.1c0,0,0.1,0,0.1,0.1L136,463.7
				C136.1,463.7,136.1,463.7,136,463.7z M65,463C64.9,463,64.9,463,65,463l-0.1-0.5c0,0,0-0.1,0.1-0.1c0,0,0.1,0,0.1,0.1L65,463
				C65,463,65,463,65,463C65,463,65,463,65,463z M136.1,462.2C136.1,462.2,136.1,462.2,136.1,462.2
				C136.1,462.2,136,462.2,136.1,462.2c-0.1-0.2-0.1-0.4,0-0.5c0,0,0-0.1,0.1-0.1c0,0,0.1,0,0.1,0.1
				C136.2,461.9,136.2,462,136.1,462.2C136.2,462.2,136.2,462.2,136.1,462.2z M64.9,461.6C64.9,461.6,64.8,461.6,64.9,461.6
				l-0.1-0.5c0,0,0-0.1,0.1-0.1c0,0,0.1,0,0.1,0.1L64.9,461.6C65,461.6,65,461.6,64.9,461.6C64.9,461.6,64.9,461.6,64.9,461.6z
				 M136.2,460.8C136.2,460.8,136.2,460.8,136.2,460.8C136.1,460.8,136.1,460.8,136.2,460.8c-0.1-0.2-0.1-0.4-0.1-0.5
				c0,0,0-0.1,0.1-0.1c0,0,0.1,0,0.1,0.1C136.3,460.4,136.3,460.6,136.2,460.8C136.3,460.8,136.2,460.8,136.2,460.8z M64.9,460.2
				C64.8,460.2,64.8,460.1,64.9,460.2l-0.1-0.5c0,0,0-0.1,0.1-0.1c0,0,0.1,0,0.1,0.1L64.9,460.2C64.9,460.1,64.9,460.2,64.9,460.2
				C64.9,460.2,64.9,460.2,64.9,460.2z M136.2,459.4C136.2,459.4,136.2,459.4,136.2,459.4C136.2,459.4,136.2,459.3,136.2,459.4
				c-0.1-0.2-0.1-0.4-0.1-0.5c0,0,0-0.1,0.1-0.1c0,0,0.1,0,0.1,0.1C136.3,459,136.3,459.1,136.2,459.4
				C136.3,459.3,136.3,459.4,136.2,459.4z M64.8,458.7C64.8,458.7,64.8,458.7,64.8,458.7l-0.1-0.5c0,0,0-0.1,0.1-0.1
				c0,0,0.1,0,0.1,0.1L64.8,458.7C64.9,458.7,64.9,458.7,64.8,458.7C64.8,458.7,64.8,458.7,64.8,458.7z M136.3,457.9L136.3,457.9
				C136.2,457.9,136.2,457.9,136.3,457.9c-0.1-0.2-0.1-0.4-0.1-0.5c0,0,0-0.1,0.1-0.1c0,0,0.1,0,0.1,0.1
				C136.4,457.6,136.3,457.7,136.3,457.9C136.3,457.9,136.3,457.9,136.3,457.9z M64.8,457.3C64.7,457.3,64.7,457.2,64.8,457.3
				l-0.1-0.5c0,0,0-0.1,0.1-0.1c0,0,0.1,0,0.1,0.1L64.8,457.3C64.9,457.2,64.8,457.3,64.8,457.3C64.8,457.3,64.8,457.3,64.8,457.3z
				 M136.3,456.5C136.2,456.5,136.2,456.4,136.3,456.5l-0.1-0.1c0-0.1,0-0.3,0-0.4c0,0,0-0.1,0.1-0.1h0c0,0,0.1,0,0.1,0.1
				c0,0.1,0,0.3,0,0.4L136.3,456.5C136.4,456.4,136.3,456.5,136.3,456.5z M64.7,455.8C64.7,455.8,64.7,455.8,64.7,455.8l-0.1-0.5
				c0,0,0-0.1,0.1-0.1c0,0,0.1,0,0.1,0.1L64.7,455.8C64.8,455.8,64.8,455.8,64.7,455.8C64.7,455.8,64.7,455.8,64.7,455.8z
				 M136.3,455C136.2,455,136.2,455,136.3,455c-0.1-0.2-0.1-0.4-0.1-0.5c0,0,0-0.1,0.1-0.1c0,0,0.1,0,0.1,0.1
				C136.3,454.7,136.3,454.8,136.3,455C136.3,455,136.3,455,136.3,455L136.3,455z M64.7,454.4C64.6,454.4,64.6,454.4,64.7,454.4
				l-0.1-0.5c0,0,0-0.1,0.1-0.1c0,0,0.1,0,0.1,0.1L64.7,454.4C64.8,454.3,64.7,454.4,64.7,454.4C64.7,454.4,64.7,454.4,64.7,454.4z
				 M136.2,453.6C136.2,453.6,136.2,453.6,136.2,453.6c-0.1-0.2-0.1-0.4-0.1-0.5c0,0,0-0.1,0.1-0.1c0,0,0.1,0,0.1,0.1
				C136.3,453.2,136.3,453.4,136.2,453.6C136.3,453.6,136.3,453.6,136.2,453.6C136.2,453.6,136.2,453.6,136.2,453.6z M64.6,452.9
				C64.6,452.9,64.6,452.9,64.6,452.9l-0.1-0.5c0,0,0-0.1,0.1-0.1c0,0,0.1,0,0.1,0.1L64.6,452.9C64.7,452.9,64.7,452.9,64.6,452.9
				C64.6,452.9,64.6,452.9,64.6,452.9z M136.2,452.1C136.1,452.1,136.1,452.1,136.2,452.1c-0.1-0.2-0.1-0.4-0.1-0.5
				c0,0,0-0.1,0.1-0.1c0,0,0.1,0,0.1,0.1C136.2,451.8,136.2,451.9,136.2,452.1C136.3,452.1,136.2,452.1,136.2,452.1
				C136.2,452.1,136.2,452.1,136.2,452.1z M64.6,451.5C64.6,451.5,64.5,451.5,64.6,451.5l-0.1-0.5c0,0,0-0.1,0.1-0.1
				c0,0,0.1,0,0.1,0.1L64.6,451.5C64.7,451.5,64.6,451.5,64.6,451.5C64.6,451.5,64.6,451.5,64.6,451.5z M136.1,450.7
				C136.1,450.7,136,450.7,136.1,450.7c-0.1-0.2-0.1-0.4-0.1-0.5c0,0,0-0.1,0.1-0.1c0,0,0.1,0,0.1,0.1
				C136.2,450.3,136.2,450.5,136.1,450.7C136.2,450.7,136.1,450.7,136.1,450.7C136.1,450.7,136.1,450.7,136.1,450.7z M64.5,450.1
				C64.5,450.1,64.5,450,64.5,450.1l-0.1-0.5c0,0,0-0.1,0.1-0.1c0,0,0.1,0,0.1,0.1L64.5,450.1C64.6,450,64.6,450.1,64.5,450.1
				C64.6,450.1,64.5,450.1,64.5,450.1z M136,449.3C135.9,449.3,135.9,449.2,136,449.3c-0.1-0.2-0.1-0.4-0.1-0.5c0,0,0-0.1,0.1-0.1
				c0,0,0.1,0,0.1,0.1C136,448.9,136,449,136,449.3C136.1,449.2,136,449.3,136,449.3C136,449.3,136,449.3,136,449.3z M64.5,448.6
				C64.5,448.6,64.4,448.6,64.5,448.6l-0.1-0.5c0,0,0-0.1,0.1-0.1c0,0,0.1,0,0.1,0.1L64.5,448.6C64.6,448.6,64.5,448.6,64.5,448.6
				C64.5,448.6,64.5,448.6,64.5,448.6z M135.8,447.8C135.8,447.8,135.8,447.8,135.8,447.8c-0.1-0.2-0.1-0.4-0.1-0.5
				c0,0,0-0.1,0.1-0.1c0,0,0.1,0,0.1,0.1C135.9,447.5,135.9,447.6,135.8,447.8C135.9,447.8,135.9,447.8,135.8,447.8
				C135.9,447.8,135.8,447.8,135.8,447.8z M64.5,447.2C64.4,447.2,64.4,447.1,64.5,447.2l-0.1-0.6h0.3c0,0,0.1,0,0.1,0.1
				c0,0,0,0.1-0.1,0.1h-0.1L64.5,447.2C64.5,447.1,64.5,447.2,64.5,447.2C64.5,447.2,64.5,447.2,64.5,447.2z M135.4,446.7h-0.4
				c0,0-0.1,0-0.1-0.1c0,0,0-0.1,0.1-0.1h0.4C135.4,446.6,135.4,446.6,135.4,446.7C135.4,446.7,135.4,446.7,135.4,446.7z
				 M133.9,446.7h-0.4c0,0-0.1,0-0.1-0.1c0,0,0-0.1,0.1-0.1h0.4C134,446.6,134,446.6,133.9,446.7C134,446.7,134,446.7,133.9,446.7z
				 M132.5,446.7h-0.4c0,0-0.1,0-0.1-0.1c0,0,0-0.1,0.1-0.1h0.4C132.5,446.6,132.6,446.6,132.5,446.7
				C132.6,446.7,132.5,446.7,132.5,446.7z M131,446.7h-0.4c0,0-0.1,0-0.1-0.1c0,0,0-0.1,0.1-0.1h0.4
				C131.1,446.6,131.1,446.6,131,446.7C131.1,446.7,131.1,446.7,131,446.7z M129.6,446.7h-0.4c0,0-0.1,0-0.1-0.1c0,0,0-0.1,0.1-0.1
				h0.4C129.6,446.6,129.7,446.6,129.6,446.7C129.7,446.7,129.6,446.7,129.6,446.7z M128.2,446.7h-0.4c0,0-0.1,0-0.1-0.1
				c0,0,0-0.1,0.1-0.1h0.4C128.2,446.6,128.2,446.6,128.2,446.7C128.2,446.7,128.2,446.7,128.2,446.7z M126.7,446.7h-0.4
				c0,0-0.1,0-0.1-0.1c0,0,0-0.1,0.1-0.1h0.4C126.7,446.6,126.8,446.6,126.7,446.7C126.8,446.7,126.7,446.7,126.7,446.7z
				 M125.3,446.7h-0.4c0,0-0.1,0-0.1-0.1c0,0,0-0.1,0.1-0.1h0.4C125.3,446.6,125.3,446.6,125.3,446.7
				C125.3,446.7,125.3,446.7,125.3,446.7z M123.8,446.7h-0.4c0,0-0.1,0-0.1-0.1c0,0,0-0.1,0.1-0.1h0.4
				C123.9,446.6,123.9,446.6,123.8,446.7C123.9,446.7,123.9,446.7,123.8,446.7z M122.4,446.7h-0.4c0,0-0.1,0-0.1-0.1
				c0,0,0-0.1,0.1-0.1h0.4C122.4,446.6,122.4,446.6,122.4,446.7C122.4,446.7,122.4,446.7,122.4,446.7z M120.9,446.7h-0.4
				c0,0-0.1,0-0.1-0.1c0,0,0-0.1,0.1-0.1h0.4C121,446.6,121,446.6,120.9,446.7C121,446.7,121,446.7,120.9,446.7z M119.5,446.7h-0.4
				c0,0-0.1,0-0.1-0.1c0,0,0-0.1,0.1-0.1h0.4C119.5,446.6,119.6,446.6,119.5,446.7C119.6,446.7,119.5,446.7,119.5,446.7z M118,446.7
				h-0.4c0,0-0.1,0-0.1-0.1c0,0,0-0.1,0.1-0.1h0.4C118.1,446.6,118.1,446.6,118,446.7C118.1,446.7,118.1,446.7,118,446.7z
				 M116.6,446.7h-0.4c0,0-0.1,0-0.1-0.1c0,0,0-0.1,0.1-0.1h0.4C116.6,446.6,116.7,446.6,116.6,446.7
				C116.7,446.7,116.6,446.7,116.6,446.7z M115.2,446.7h-0.4c0,0-0.1,0-0.1-0.1c0,0,0-0.1,0.1-0.1h0.4
				C115.2,446.6,115.2,446.6,115.2,446.7C115.2,446.7,115.2,446.7,115.2,446.7z M113.7,446.7h-0.4c0,0-0.1,0-0.1-0.1
				c0,0,0-0.1,0.1-0.1h0.4C113.8,446.6,113.8,446.6,113.7,446.7C113.8,446.7,113.8,446.7,113.7,446.7z M112.3,446.7h-0.4
				c0,0-0.1,0-0.1-0.1c0,0,0-0.1,0.1-0.1h0.4C112.3,446.6,112.3,446.6,112.3,446.7C112.3,446.7,112.3,446.7,112.3,446.7z
				 M110.8,446.7h-0.4c0,0-0.1,0-0.1-0.1c0,0,0-0.1,0.1-0.1h0.4C110.9,446.6,110.9,446.6,110.8,446.7
				C110.9,446.7,110.9,446.7,110.8,446.7z M109.4,446.7H109c0,0-0.1,0-0.1-0.1c0,0,0-0.1,0.1-0.1h0.4
				C109.4,446.6,109.5,446.6,109.4,446.7C109.5,446.7,109.4,446.7,109.4,446.7z M107.9,446.7h-0.4c0,0-0.1,0-0.1-0.1
				c0,0,0-0.1,0.1-0.1h0.4C108,446.6,108,446.6,107.9,446.7C108,446.7,108,446.7,107.9,446.7z M106.5,446.7h-0.4c0,0-0.1,0-0.1-0.1
				c0,0,0-0.1,0.1-0.1h0.4C106.5,446.6,106.6,446.6,106.5,446.7C106.6,446.7,106.5,446.7,106.5,446.7z M105.1,446.7h-0.4
				c0,0-0.1,0-0.1-0.1c0,0,0-0.1,0.1-0.1h0.4C105.1,446.6,105.1,446.6,105.1,446.7C105.1,446.7,105.1,446.7,105.1,446.7z
				 M103.6,446.7h-0.4c0,0-0.1,0-0.1-0.1c0,0,0-0.1,0.1-0.1h0.4C103.6,446.6,103.7,446.6,103.6,446.7
				C103.7,446.7,103.6,446.7,103.6,446.7z M102.2,446.7h-0.4c0,0-0.1,0-0.1-0.1c0,0,0-0.1,0.1-0.1h0.4
				C102.2,446.6,102.2,446.6,102.2,446.7C102.2,446.7,102.2,446.7,102.2,446.7z M100.7,446.7h-0.4c0,0-0.1,0-0.1-0.1
				c0,0,0-0.1,0.1-0.1h0.4C100.8,446.6,100.8,446.6,100.7,446.7C100.8,446.7,100.8,446.7,100.7,446.7z M99.3,446.7h-0.4
				c0,0-0.1,0-0.1-0.1c0,0,0-0.1,0.1-0.1h0.4C99.3,446.6,99.4,446.6,99.3,446.7C99.4,446.7,99.3,446.7,99.3,446.7z M97.8,446.7h-0.4
				c0,0-0.1,0-0.1-0.1c0,0,0-0.1,0.1-0.1h0.4C97.9,446.6,97.9,446.6,97.8,446.7C97.9,446.7,97.9,446.7,97.8,446.7z M96.4,446.7H96
				c0,0-0.1,0-0.1-0.1c0,0,0-0.1,0.1-0.1h0.4C96.4,446.6,96.5,446.6,96.4,446.7C96.5,446.7,96.4,446.7,96.4,446.7z M94.9,446.7h-0.4
				c0,0-0.1,0-0.1-0.1c0,0,0-0.1,0.1-0.1h0.4C95,446.6,95,446.6,94.9,446.7C95,446.7,95,446.7,94.9,446.7z M93.5,446.7h-0.4
				c0,0-0.1,0-0.1-0.1c0,0,0-0.1,0.1-0.1h0.4C93.5,446.6,93.6,446.6,93.5,446.7C93.6,446.7,93.5,446.7,93.5,446.7z M92.1,446.7h-0.4
				c0,0-0.1,0-0.1-0.1c0,0,0-0.1,0.1-0.1h0.4C92.1,446.6,92.1,446.6,92.1,446.7C92.1,446.7,92.1,446.7,92.1,446.7z M90.6,446.7h-0.4
				c0,0-0.1,0-0.1-0.1c0,0,0-0.1,0.1-0.1h0.4C90.7,446.6,90.7,446.6,90.6,446.7C90.7,446.7,90.7,446.7,90.6,446.7z M89.2,446.7h-0.4
				c0,0-0.1,0-0.1-0.1c0,0,0-0.1,0.1-0.1h0.4C89.2,446.6,89.2,446.6,89.2,446.7C89.2,446.7,89.2,446.7,89.2,446.7z M87.7,446.7h-0.4
				c0,0-0.1,0-0.1-0.1c0,0,0-0.1,0.1-0.1h0.4C87.8,446.6,87.8,446.6,87.7,446.7C87.8,446.7,87.8,446.7,87.7,446.7z M86.3,446.7h-0.4
				c0,0-0.1,0-0.1-0.1c0,0,0-0.1,0.1-0.1h0.4C86.3,446.6,86.4,446.6,86.3,446.7C86.4,446.7,86.3,446.7,86.3,446.7z M84.8,446.7h-0.4
				c0,0-0.1,0-0.1-0.1c0,0,0-0.1,0.1-0.1h0.4C84.9,446.6,84.9,446.6,84.8,446.7C84.9,446.7,84.9,446.7,84.8,446.7z M83.4,446.7H83
				c0,0-0.1,0-0.1-0.1c0,0,0-0.1,0.1-0.1h0.4C83.4,446.6,83.5,446.6,83.4,446.7C83.5,446.7,83.4,446.7,83.4,446.7z M82,446.7h-0.4
				c0,0-0.1,0-0.1-0.1c0,0,0-0.1,0.1-0.1H82C82,446.6,82,446.6,82,446.7C82,446.7,82,446.7,82,446.7z M80.5,446.7h-0.4
				c0,0-0.1,0-0.1-0.1c0,0,0-0.1,0.1-0.1h0.4C80.5,446.6,80.6,446.6,80.5,446.7C80.6,446.7,80.5,446.7,80.5,446.7z M79.1,446.7h-0.4
				c0,0-0.1,0-0.1-0.1c0,0,0-0.1,0.1-0.1h0.4C79.1,446.6,79.1,446.6,79.1,446.7C79.1,446.7,79.1,446.7,79.1,446.7z M77.6,446.7h-0.4
				c0,0-0.1,0-0.1-0.1c0,0,0-0.1,0.1-0.1h0.4C77.7,446.6,77.7,446.6,77.6,446.7C77.7,446.7,77.7,446.7,77.6,446.7z M76.2,446.7h-0.4
				c0,0-0.1,0-0.1-0.1c0,0,0-0.1,0.1-0.1h0.4C76.2,446.6,76.3,446.6,76.2,446.7C76.3,446.7,76.2,446.7,76.2,446.7z M74.7,446.7h-0.4
				c0,0-0.1,0-0.1-0.1c0,0,0-0.1,0.1-0.1h0.4C74.8,446.6,74.8,446.6,74.7,446.7C74.8,446.7,74.8,446.7,74.7,446.7z M73.3,446.7h-0.4
				c0,0-0.1,0-0.1-0.1c0,0,0-0.1,0.1-0.1h0.4C73.3,446.6,73.4,446.6,73.3,446.7C73.4,446.7,73.3,446.7,73.3,446.7z M71.8,446.7h-0.4
				c0,0-0.1,0-0.1-0.1c0,0,0-0.1,0.1-0.1h0.4C71.9,446.6,71.9,446.6,71.8,446.7C71.9,446.7,71.9,446.7,71.8,446.7z M70.4,446.7H70
				c0,0-0.1,0-0.1-0.1c0,0,0-0.1,0.1-0.1h0.4C70.4,446.6,70.5,446.6,70.4,446.7C70.5,446.7,70.4,446.7,70.4,446.7z M69,446.7h-0.4
				c0,0-0.1,0-0.1-0.1c0,0,0-0.1,0.1-0.1H69C69,446.6,69,446.6,69,446.7C69,446.7,69,446.7,69,446.7z M67.5,446.7h-0.4
				c0,0-0.1,0-0.1-0.1c0,0,0-0.1,0.1-0.1h0.4C67.6,446.6,67.6,446.6,67.5,446.7C67.6,446.7,67.6,446.7,67.5,446.7z M66.1,446.7h-0.4
				c0,0-0.1,0-0.1-0.1c0,0,0-0.1,0.1-0.1h0.4C66.1,446.6,66.1,446.6,66.1,446.7C66.1,446.7,66.1,446.7,66.1,446.7z"/>
			<linearGradient id="SVGID_54_" gradientUnits="userSpaceOnUse" x1="85.3841" y1="433.6028" x2="84.9474" y2="423.012">
				<stop  offset="0" style="stop-color:#CB236D"/>
				<stop  offset="1" style="stop-color:#4C246D"/>
			</linearGradient>
			<path class="st59" d="M80,428.6l0.2-1.9c0.2-0.5,0.6-0.8,1.1-0.9c1.9-0.3,6.4-0.8,8.7,0.8l0.3,2.2L80,428.6z"/>
			<linearGradient id="SVGID_55_" gradientUnits="userSpaceOnUse" x1="85.1904" y1="495.2281" x2="85.1904" y2="445.5031">
				<stop  offset="0" style="stop-color:#CB236D"/>
				<stop  offset="1" style="stop-color:#4C246D"/>
			</linearGradient>
			<path class="st60" d="M85.8,426.8c-0.4,0.1-0.9,0.1-1.3,0c-0.5-0.1-0.9-0.6-0.9-1.1l0-6h3.1l0,6
				C86.7,426.2,86.4,426.7,85.8,426.8z"/>
			<linearGradient id="SVGID_56_" gradientUnits="userSpaceOnUse" x1="114.8902" y1="432.3861" x2="114.4535" y2="421.7953">
				<stop  offset="0" style="stop-color:#CB236D"/>
				<stop  offset="1" style="stop-color:#4C246D"/>
			</linearGradient>
			<path class="st61" d="M109.6,428.6l0.2-1.9c0.2-0.5,0.6-0.8,1.1-0.9c1.9-0.3,6.4-0.8,8.7,0.8l0.3,2.2L109.6,428.6z"/>
			<linearGradient id="SVGID_57_" gradientUnits="userSpaceOnUse" x1="130.0541" y1="408.356" x2="89.1456" y2="446.4432">
				<stop  offset="0" style="stop-color:#CB236D"/>
				<stop  offset="1" style="stop-color:#4C246D"/>
			</linearGradient>
			<path class="st62" d="M115.4,426.8c-0.4,0.1-0.9,0.1-1.3,0c-0.5-0.1-0.9-0.6-0.9-1.1l0-6.6h3.1l0,6.6
				C116.3,426.2,115.9,426.7,115.4,426.8z"/>
			<linearGradient id="SVGID_58_" gradientUnits="userSpaceOnUse" x1="78.617" y1="441.6259" x2="111.4128" y2="404.5984">
				<stop  offset="0" style="stop-color:#CB236D"/>
				<stop  offset="1" style="stop-color:#4C246D"/>
			</linearGradient>
			<path class="st63" d="M83.4,421.1l32.8-1.1c0.7,0,1.4-0.6,1.5-1.3c0.2-1,0.3-2.6,0.1-4.2c-0.3-1.8-1.8-3.2-3.7-3.2
				c-6.1-0.1-21.7-0.1-30.3,3.3c-0.9,0.4-1.6,1.1-1.8,2.1c-0.2,0.9-0.4,2.1-0.1,3.3C82.1,420.7,82.7,421.2,83.4,421.1z"/>
			<path class="st17" d="M82.8,419.4c-0.1,0-0.1-0.1-0.1-0.1c0-0.1-0.1-1.3,0.2-2.5c0.2-0.9,1-1.6,1.9-1.9c1.8-0.5,5.3-1.4,8.2-1.5
				c0.1,0,0.1,0.1,0.1,0.1c0,0.1-0.1,0.1-0.1,0.1c-2.8,0.1-6.3,1-8.1,1.5c-0.8,0.2-1.4,0.9-1.7,1.7c-0.3,1.1-0.2,2.4-0.2,2.4
				C82.9,419.4,82.9,419.4,82.8,419.4C82.8,419.4,82.8,419.4,82.8,419.4z"/>
			<linearGradient id="SVGID_59_" gradientUnits="userSpaceOnUse" x1="103.0266" y1="417.6403" x2="92.2175" y2="518.5258">
				<stop  offset="0" style="stop-color:#CB236D"/>
				<stop  offset="1" style="stop-color:#4C246D"/>
			</linearGradient>
			<path class="st64" d="M64.8,427.9c10.6-0.1,56.5-0.6,69.8,1c1.1,0.1,2.1,1,2.3,2.1c0.8,3.6,2.4,11.8,2.2,20
				c0,1.1-0.8,2.1-1.9,2.3l-30.4,5.8H96l-32.4-6.4c-1.1-0.2-2-1.2-2-2.4c-0.2-4.1-0.5-13.8,0.6-20C62.3,428.9,63.5,427.9,64.8,427.9
				z"/>
			<path class="st17" d="M106.5,456.5h-0.4c0,0-0.1,0-0.1-0.1s0-0.1,0.1-0.1h0.4C106.6,456.3,106.6,456.4,106.5,456.5
				C106.6,456.4,106.6,456.5,106.5,456.5z M105.1,456.5h-0.4c0,0-0.1,0-0.1-0.1s0-0.1,0.1-0.1h0.4
				C105.1,456.3,105.1,456.4,105.1,456.5C105.1,456.4,105.1,456.5,105.1,456.5z M103.6,456.5h-0.4c0,0-0.1,0-0.1-0.1s0-0.1,0.1-0.1
				h0.4C103.7,456.3,103.7,456.4,103.6,456.5C103.7,456.4,103.7,456.5,103.6,456.5z M102.2,456.5h-0.4c0,0-0.1,0-0.1-0.1
				s0-0.1,0.1-0.1h0.4C102.2,456.3,102.3,456.4,102.2,456.5C102.3,456.4,102.2,456.5,102.2,456.5z M100.7,456.5h-0.4
				c0,0-0.1,0-0.1-0.1s0-0.1,0.1-0.1h0.4C100.8,456.3,100.8,456.4,100.7,456.5C100.8,456.4,100.8,456.5,100.7,456.5z M99.3,456.5
				h-0.4c0,0-0.1,0-0.1-0.1s0-0.1,0.1-0.1h0.4C99.3,456.3,99.4,456.4,99.3,456.5C99.4,456.4,99.3,456.5,99.3,456.5z M97.9,456.5
				h-0.4c0,0-0.1,0-0.1-0.1s0-0.1,0.1-0.1h0.4C97.9,456.3,97.9,456.4,97.9,456.5C97.9,456.4,97.9,456.5,97.9,456.5z M96.4,456.5
				h-0.2l-0.4-0.1c0,0-0.1,0-0.1-0.1c0,0,0-0.1,0.1-0.1l0.4,0.1l0.2,0C96.4,456.3,96.5,456.4,96.4,456.5
				C96.5,456.4,96.4,456.5,96.4,456.5z M107.5,456.3C107.5,456.3,107.4,456.3,107.5,456.3c-0.1-0.1-0.1-0.1,0-0.1l0.4-0.1
				c0,0,0.1,0,0.1,0.1s0,0.1-0.1,0.1L107.5,456.3C107.5,456.3,107.5,456.3,107.5,456.3z M94.8,456.2
				C94.8,456.2,94.8,456.2,94.8,456.2l-0.4-0.1c0,0-0.1,0-0.1-0.1c0,0,0-0.1,0.1-0.1l0.4,0.1C94.9,456.1,94.9,456.1,94.8,456.2
				C94.9,456.2,94.8,456.2,94.8,456.2z M108.9,456C108.9,456,108.9,456,108.9,456c-0.1-0.1-0.1-0.1,0-0.1l0.4-0.1c0,0,0.1,0,0.1,0.1
				c0,0,0,0.1-0.1,0.1L108.9,456C108.9,456,108.9,456,108.9,456z M93.4,455.9C93.4,455.9,93.4,455.9,93.4,455.9l-0.4-0.1
				c0,0-0.1,0-0.1-0.1c0,0,0-0.1,0.1-0.1l0.4,0.1C93.4,455.8,93.5,455.8,93.4,455.9C93.5,455.9,93.4,455.9,93.4,455.9z M110.3,455.7
				C110.3,455.7,110.3,455.7,110.3,455.7c-0.1-0.1-0.1-0.1,0-0.1l0.4-0.1c0,0,0.1,0,0.1,0.1c0,0,0,0.1-0.1,0.1L110.3,455.7
				C110.4,455.7,110.4,455.7,110.3,455.7z M92,455.6C92,455.6,92,455.6,92,455.6l-0.4-0.1c0,0-0.1,0-0.1-0.1c0,0,0-0.1,0.1-0.1
				l0.4,0.1C92,455.5,92.1,455.5,92,455.6C92,455.6,92,455.6,92,455.6z M111.8,455.5C111.7,455.5,111.7,455.5,111.8,455.5
				c-0.1-0.1-0.1-0.1,0-0.1l0.4-0.1c0,0,0.1,0,0.1,0.1c0,0,0,0.1-0.1,0.1L111.8,455.5C111.8,455.5,111.8,455.5,111.8,455.5z
				 M90.6,455.3C90.6,455.3,90.5,455.3,90.6,455.3l-0.4-0.1c0,0-0.1,0-0.1-0.1c0,0,0-0.1,0.1-0.1l0.4,0.1
				C90.6,455.2,90.6,455.3,90.6,455.3C90.6,455.3,90.6,455.3,90.6,455.3z M113.2,455.2C113.1,455.2,113.1,455.2,113.2,455.2
				c-0.1-0.1-0.1-0.1,0-0.1l0.4-0.1c0,0,0.1,0,0.1,0.1c0,0,0,0.1-0.1,0.1L113.2,455.2C113.2,455.2,113.2,455.2,113.2,455.2z
				 M89.1,455.1C89.1,455.1,89.1,455.1,89.1,455.1l-0.4-0.1c0,0-0.1,0-0.1-0.1c0,0,0-0.1,0.1-0.1l0.4,0.1
				C89.2,454.9,89.2,455,89.1,455.1C89.2,455,89.2,455.1,89.1,455.1z M114.6,454.9C114.6,454.9,114.5,454.9,114.6,454.9
				c-0.1-0.1-0.1-0.1,0-0.1l0.4-0.1c0,0,0.1,0,0.1,0.1c0,0,0,0.1-0.1,0.1L114.6,454.9C114.6,454.9,114.6,454.9,114.6,454.9z
				 M87.7,454.8C87.7,454.8,87.7,454.8,87.7,454.8l-0.4-0.1c0,0-0.1,0-0.1-0.1c0,0,0-0.1,0.1-0.1l0.4,0.1
				C87.8,454.6,87.8,454.7,87.7,454.8C87.8,454.8,87.8,454.8,87.7,454.8z M116,454.7C116,454.7,116,454.7,116,454.7
				c-0.1-0.1-0.1-0.1,0-0.1l0.4-0.1c0,0,0.1,0,0.1,0.1c0,0,0,0.1-0.1,0.1L116,454.7C116,454.7,116,454.7,116,454.7z M86.3,454.5
				C86.3,454.5,86.3,454.5,86.3,454.5l-0.4-0.1c0,0-0.1,0-0.1-0.1c0,0,0-0.1,0.1-0.1l0.4,0.1C86.4,454.4,86.4,454.4,86.3,454.5
				C86.4,454.5,86.3,454.5,86.3,454.5z M117.4,454.4C117.4,454.4,117.4,454.4,117.4,454.4c-0.1-0.1-0.1-0.1,0-0.1l0.4-0.1
				c0,0,0.1,0,0.1,0.1c0,0,0,0.1-0.1,0.1L117.4,454.4C117.4,454.4,117.4,454.4,117.4,454.4z M84.9,454.2
				C84.9,454.2,84.9,454.2,84.9,454.2l-0.4-0.1c0,0-0.1,0-0.1-0.1c0,0,0-0.1,0.1-0.1l0.4,0.1C84.9,454.1,85,454.1,84.9,454.2
				C85,454.2,84.9,454.2,84.9,454.2z M118.9,454.1C118.8,454.1,118.8,454.1,118.9,454.1c-0.1-0.1-0.1-0.1,0-0.1l0.4-0.1
				c0,0,0.1,0,0.1,0.1c0,0,0,0.1-0.1,0.1L118.9,454.1C118.9,454.1,118.9,454.1,118.9,454.1z M83.5,453.9
				C83.5,453.9,83.5,453.9,83.5,453.9l-0.4-0.1c0,0-0.1,0-0.1-0.1c0,0,0-0.1,0.1-0.1l0.4,0.1C83.5,453.8,83.6,453.8,83.5,453.9
				C83.5,453.9,83.5,453.9,83.5,453.9z M120.3,453.9C120.2,453.9,120.2,453.8,120.3,453.9c-0.1-0.1-0.1-0.1,0-0.1l0.4-0.1
				c0,0,0.1,0,0.1,0.1c0,0,0,0.1-0.1,0.1L120.3,453.9C120.3,453.9,120.3,453.9,120.3,453.9z M82.1,453.7
				C82.1,453.7,82.1,453.7,82.1,453.7l-0.4-0.1c0,0-0.1,0-0.1-0.1c0,0,0-0.1,0.1-0.1l0.4,0.1C82.1,453.5,82.1,453.6,82.1,453.7
				C82.1,453.6,82.1,453.7,82.1,453.7z M121.7,453.6C121.7,453.6,121.6,453.6,121.7,453.6c-0.1-0.1-0.1-0.1,0-0.1l0.4-0.1
				c0,0,0.1,0,0.1,0.1c0,0,0,0.1-0.1,0.1L121.7,453.6C121.7,453.6,121.7,453.6,121.7,453.6z M80.6,453.4
				C80.6,453.4,80.6,453.4,80.6,453.4l-0.4-0.1c0,0-0.1,0-0.1-0.1c0,0,0-0.1,0.1-0.1l0.4,0.1C80.7,453.2,80.7,453.3,80.6,453.4
				C80.7,453.4,80.7,453.4,80.6,453.4z M123.1,453.3C123.1,453.3,123,453.3,123.1,453.3c-0.1-0.1-0.1-0.1,0-0.1l0.4-0.1
				c0,0,0.1,0,0.1,0.1s0,0.1-0.1,0.1L123.1,453.3C123.1,453.3,123.1,453.3,123.1,453.3z M79.2,453.1
				C79.2,453.1,79.2,453.1,79.2,453.1l-0.4-0.1c0,0-0.1,0-0.1-0.1c0,0,0-0.1,0.1-0.1l0.4,0.1C79.3,453,79.3,453,79.2,453.1
				C79.3,453.1,79.3,453.1,79.2,453.1z M124.5,453.1C124.5,453.1,124.5,453,124.5,453.1c-0.1-0.1-0.1-0.1,0-0.1l0.4-0.1
				c0,0,0.1,0,0.1,0.1c0,0,0,0.1-0.1,0.1L124.5,453.1C124.5,453.1,124.5,453.1,124.5,453.1z M77.8,452.8
				C77.8,452.8,77.8,452.8,77.8,452.8l-0.4-0.1c0,0-0.1,0-0.1-0.1c0,0,0-0.1,0.1-0.1l0.4,0.1C77.9,452.7,77.9,452.7,77.8,452.8
				C77.9,452.8,77.8,452.8,77.8,452.8z M125.9,452.8C125.9,452.8,125.9,452.8,125.9,452.8c-0.1-0.1-0.1-0.1,0-0.1l0.4-0.1
				c0,0,0.1,0,0.1,0.1c0,0,0,0.1-0.1,0.1L125.9,452.8C126,452.8,126,452.8,125.9,452.8z M76.4,452.5
				C76.4,452.5,76.4,452.5,76.4,452.5l-0.4-0.1c0,0-0.1,0-0.1-0.1c0,0,0-0.1,0.1-0.1l0.4,0.1C76.4,452.4,76.5,452.4,76.4,452.5
				C76.5,452.5,76.4,452.5,76.4,452.5z M127.4,452.5C127.3,452.5,127.3,452.5,127.4,452.5c-0.1-0.1-0.1-0.1,0-0.1l0.4-0.1
				c0,0,0.1,0,0.1,0.1c0,0,0,0.1-0.1,0.1L127.4,452.5C127.4,452.5,127.4,452.5,127.4,452.5z M128.8,452.3
				C128.8,452.3,128.7,452.2,128.8,452.3c-0.1-0.1-0.1-0.1,0-0.1l0.4-0.1c0,0,0.1,0,0.1,0.1c0,0,0,0.1-0.1,0.1L128.8,452.3
				C128.8,452.3,128.8,452.3,128.8,452.3z M75,452.3C75,452.3,75,452.3,75,452.3l-0.4-0.1c0,0-0.1,0-0.1-0.1c0,0,0-0.1,0.1-0.1
				l0.4,0.1C75,452.1,75.1,452.2,75,452.3C75,452.2,75,452.3,75,452.3z M130.2,452C130.2,452,130.1,452,130.2,452
				c-0.1-0.1-0.1-0.1,0-0.1l0.4-0.1c0,0,0.1,0,0.1,0.1c0,0,0,0.1-0.1,0.1L130.2,452C130.2,452,130.2,452,130.2,452z M73.6,452
				C73.6,452,73.6,452,73.6,452l-0.4-0.1c0,0-0.1,0-0.1-0.1c0,0,0-0.1,0.1-0.1l0.4,0.1C73.6,451.8,73.6,451.9,73.6,452
				C73.6,451.9,73.6,452,73.6,452z M131.6,451.7C131.6,451.7,131.6,451.7,131.6,451.7c-0.1-0.1-0.1-0.1,0-0.1l0.4-0.1
				c0,0,0.1,0,0.1,0.1c0,0,0,0.1-0.1,0.1L131.6,451.7C131.6,451.7,131.6,451.7,131.6,451.7z M72.1,451.7
				C72.1,451.7,72.1,451.7,72.1,451.7l-0.4-0.1c0,0-0.1,0-0.1-0.1c0,0,0-0.1,0.1-0.1l0.4,0.1C72.2,451.6,72.2,451.6,72.1,451.7
				C72.2,451.7,72.2,451.7,72.1,451.7z M133,451.5C133,451.5,133,451.4,133,451.5c-0.1-0.1-0.1-0.1,0-0.1l0.4-0.1c0,0,0.1,0,0.1,0.1
				s0,0.1-0.1,0.1L133,451.5C133.1,451.5,133,451.5,133,451.5z M70.7,451.4C70.7,451.4,70.7,451.4,70.7,451.4l-0.4-0.1
				c0,0-0.1,0-0.1-0.1c0,0,0-0.1,0.1-0.1l0.4,0.1C70.8,451.3,70.8,451.3,70.7,451.4C70.8,451.4,70.8,451.4,70.7,451.4z M134.5,451.2
				C134.4,451.2,134.4,451.2,134.5,451.2c-0.1-0.1-0.1-0.1,0-0.1l0.4-0.1c0,0,0.1,0,0.1,0.1c0,0,0,0.1-0.1,0.1L134.5,451.2
				C134.5,451.2,134.5,451.2,134.5,451.2z M69.3,451.1C69.3,451.1,69.3,451.1,69.3,451.1l-0.4-0.1c0,0-0.1,0-0.1-0.1
				c0,0,0-0.1,0.1-0.1l0.4,0.1C69.4,451,69.4,451,69.3,451.1C69.4,451.1,69.4,451.1,69.3,451.1z M135.9,450.9
				C135.8,450.9,135.8,450.9,135.9,450.9c-0.1-0.1-0.1-0.1,0-0.1l0.4-0.1c0,0,0.1,0,0.1,0.1c0,0,0,0.1-0.1,0.1L135.9,450.9
				C135.9,450.9,135.9,450.9,135.9,450.9z M67.9,450.8C67.9,450.8,67.9,450.8,67.9,450.8l-0.4-0.1c0,0-0.1,0-0.1-0.1
				c0,0,0-0.1,0.1-0.1l0.4,0.1C68,450.7,68,450.7,67.9,450.8C68,450.8,67.9,450.8,67.9,450.8z M66.5,450.6
				C66.5,450.6,66.5,450.6,66.5,450.6l-0.4-0.1c0,0-0.1,0-0.1-0.1c0,0,0-0.1,0.1-0.1l0.4,0.1C66.5,450.4,66.6,450.5,66.5,450.6
				C66.5,450.5,66.5,450.6,66.5,450.6z M65.1,450.3C65.1,450.3,65.1,450.3,65.1,450.3l-0.4-0.1c0,0-0.1,0-0.1-0.1c0,0,0-0.1,0.1-0.1
				l0.4,0.1C65.1,450.1,65.1,450.2,65.1,450.3C65.1,450.3,65.1,450.3,65.1,450.3z M136.5,450C136.5,450,136.5,450,136.5,450
				C136.5,450,136.4,450,136.5,450l-0.1-0.3l0-0.2c0,0,0-0.1,0.1-0.1h0c0,0,0.1,0,0.1,0.1l0,0.2L136.5,450
				C136.6,450,136.6,450,136.5,450z M64.1,449.6C64.1,449.6,64,449.6,64.1,449.6c-0.1-0.2-0.1-0.4-0.1-0.5c0,0,0-0.1,0.1-0.1
				c0,0,0.1,0,0.1,0.1C64.2,449.2,64.2,449.4,64.1,449.6C64.2,449.6,64.1,449.6,64.1,449.6C64.1,449.6,64.1,449.6,64.1,449.6z
				 M136.5,448.6C136.5,448.6,136.4,448.5,136.5,448.6c-0.1-0.2-0.1-0.4-0.1-0.5c0,0,0-0.1,0.1-0.1c0,0,0.1,0,0.1,0.1
				C136.6,448.2,136.6,448.3,136.5,448.6C136.6,448.5,136.5,448.5,136.5,448.6C136.5,448.6,136.5,448.6,136.5,448.6z M64,448.2
				C64,448.2,64,448.1,64,448.2l-0.1-0.5c0,0,0-0.1,0.1-0.1c0,0,0.1,0,0.1,0.1L64,448.2C64.1,448.1,64.1,448.2,64,448.2
				C64,448.2,64,448.2,64,448.2z M136.5,447.1C136.4,447.1,136.4,447.1,136.5,447.1c-0.1-0.2-0.1-0.4-0.1-0.5c0,0,0-0.1,0.1-0.1
				c0,0,0.1,0,0.1,0.1C136.5,446.7,136.5,446.9,136.5,447.1C136.5,447.1,136.5,447.1,136.5,447.1
				C136.5,447.1,136.5,447.1,136.5,447.1z M64,446.7C64,446.7,63.9,446.7,64,446.7l-0.1-0.5c0,0,0-0.1,0.1-0.1c0,0,0.1,0,0.1,0.1
				L64,446.7C64.1,446.7,64,446.7,64,446.7C64,446.7,64,446.7,64,446.7z M136.4,445.7C136.3,445.7,136.3,445.6,136.4,445.7
				c-0.1-0.2-0.1-0.4-0.1-0.5c0,0,0-0.1,0.1-0.1c0,0,0.1,0,0.1,0.1C136.4,445.3,136.4,445.4,136.4,445.7
				C136.5,445.6,136.4,445.7,136.4,445.7C136.4,445.7,136.4,445.7,136.4,445.7z M64,445.3C63.9,445.3,63.9,445.2,64,445.3l-0.1-0.5
				c0,0,0-0.1,0.1-0.1c0,0,0.1,0,0.1,0.1L64,445.3C64,445.2,64,445.3,64,445.3C64,445.3,64,445.3,64,445.3z M136.3,444.2
				C136.2,444.2,136.2,444.2,136.3,444.2c-0.1-0.2-0.1-0.4-0.1-0.5c0,0,0-0.1,0.1-0.1c0,0,0.1,0,0.1,0.1
				C136.3,443.9,136.3,444,136.3,444.2C136.4,444.2,136.3,444.2,136.3,444.2C136.3,444.2,136.3,444.2,136.3,444.2z M63.9,443.8
				C63.9,443.8,63.9,443.8,63.9,443.8l-0.1-0.5c0,0,0-0.1,0.1-0.1h0c0,0,0.1,0,0.1,0.1L63.9,443.8C64,443.8,64,443.8,63.9,443.8
				C63.9,443.8,63.9,443.8,63.9,443.8z M136.2,442.8C136.1,442.8,136.1,442.8,136.2,442.8c-0.1-0.2-0.1-0.4-0.1-0.5
				c0,0,0-0.1,0.1-0.1c0,0,0.1,0,0.1,0.1C136.2,442.4,136.2,442.6,136.2,442.8C136.2,442.7,136.2,442.8,136.2,442.8
				C136.2,442.8,136.2,442.8,136.2,442.8z M63.9,442.4C63.9,442.4,63.9,442.4,63.9,442.4l-0.1-0.3l0-0.2c0,0,0-0.1,0.1-0.1h0
				c0,0,0.1,0,0.1,0.1l0,0.2L63.9,442.4C64,442.4,64,442.4,63.9,442.4L63.9,442.4z M136,441.4C136,441.4,135.9,441.3,136,441.4
				c-0.1-0.2-0.1-0.4-0.1-0.5c0,0,0-0.1,0.1-0.1c0,0,0.1,0,0.1,0.1C136,441,136.1,441.1,136,441.4
				C136.1,441.3,136.1,441.3,136,441.4C136,441.4,136,441.4,136,441.4z M63.9,440.9C63.9,440.9,63.9,440.9,63.9,440.9
				C63.9,440.9,63.9,440.9,63.9,440.9c-0.1-0.2-0.1-0.4-0.1-0.5c0,0,0-0.1,0.1-0.1c0,0,0,0,0,0c0,0,0.1,0,0.1,0.1
				C64,440.6,64,440.7,63.9,440.9C64,440.9,64,440.9,63.9,440.9z M135.8,439.9C135.8,439.9,135.8,439.9,135.8,439.9
				c-0.1-0.2-0.1-0.4-0.1-0.5c0,0,0-0.1,0.1-0.1c0,0,0.1,0,0.1,0.1C135.9,439.5,135.9,439.7,135.8,439.9
				C135.9,439.9,135.9,439.9,135.8,439.9C135.8,439.9,135.8,439.9,135.8,439.9z M64,439.5C63.9,439.5,63.9,439.5,64,439.5
				C63.9,439.5,63.9,439.5,64,439.5c-0.1-0.2-0.1-0.4-0.1-0.5c0,0,0-0.1,0.1-0.1c0,0,0.1,0,0.1,0.1C64,439.1,64,439.3,64,439.5
				C64,439.5,64,439.5,64,439.5z M135.6,438.5C135.6,438.5,135.6,438.5,135.6,438.5c-0.1-0.2-0.1-0.3-0.1-0.5c0,0,0-0.1,0.1-0.1
				c0,0,0.1,0,0.1,0.1C135.7,438.1,135.7,438.3,135.6,438.5C135.7,438.4,135.7,438.5,135.6,438.5
				C135.6,438.5,135.6,438.5,135.6,438.5z M64,438.1C64,438.1,64,438.1,64,438.1C63.9,438.1,63.9,438,64,438.1
				c-0.1-0.2-0.1-0.4-0.1-0.5c0,0,0-0.1,0.1-0.1c0,0,0.1,0,0.1,0.1C64.1,437.7,64.1,437.8,64,438.1C64.1,438,64,438.1,64,438.1z
				 M135.4,437.1C135.4,437.1,135.3,437,135.4,437.1c-0.1-0.2-0.1-0.3-0.1-0.5c0,0,0-0.1,0.1-0.1c0,0,0.1,0,0.1,0.1
				C135.4,436.7,135.5,436.8,135.4,437.1C135.5,437,135.5,437.1,135.4,437.1C135.4,437.1,135.4,437.1,135.4,437.1z M64.1,436.6
				C64.1,436.6,64.1,436.6,64.1,436.6C64,436.6,64,436.6,64.1,436.6c-0.1-0.2-0.1-0.4,0-0.5c0,0,0-0.1,0.1-0.1c0,0,0.1,0,0.1,0.1
				C64.1,436.3,64.1,436.4,64.1,436.6C64.1,436.6,64.1,436.6,64.1,436.6z M135.2,435.6C135.1,435.6,135.1,435.6,135.2,435.6
				c-0.1-0.2-0.1-0.3-0.1-0.5c0,0,0-0.1,0.1-0.1c0,0,0.1,0,0.1,0.1C135.2,435.3,135.2,435.4,135.2,435.6
				C135.2,435.6,135.2,435.6,135.2,435.6C135.2,435.6,135.2,435.6,135.2,435.6z M64.1,435.2C64.1,435.2,64.1,435.2,64.1,435.2
				C64.1,435.2,64.1,435.1,64.1,435.2c-0.1-0.2-0.1-0.4,0-0.5c0,0,0-0.1,0.1-0.1c0,0,0.1,0,0.1,0.1C64.2,434.8,64.2,435,64.1,435.2
				C64.2,435.1,64.2,435.2,64.1,435.2z M134.9,434.2C134.9,434.2,134.8,434.2,134.9,434.2c-0.1-0.2-0.1-0.3-0.2-0.5
				c0,0,0-0.1,0.1-0.1c0,0,0.1,0,0.1,0.1C134.9,433.8,135,434,134.9,434.2C135,434.2,135,434.2,134.9,434.2
				C134.9,434.2,134.9,434.2,134.9,434.2z M64.3,433.7C64.3,433.7,64.3,433.7,64.3,433.7C64.2,433.7,64.2,433.7,64.3,433.7
				c-0.1-0.2,0-0.4,0-0.5c0,0,0-0.1,0.1-0.1c0,0,0.1,0,0.1,0.1C64.4,433.4,64.4,433.5,64.3,433.7C64.3,433.7,64.3,433.7,64.3,433.7z
				 M134.6,432.8C134.6,432.8,134.6,432.8,134.6,432.8c-0.1-0.2-0.1-0.3-0.2-0.5c0,0,0-0.1,0.1-0.1c0,0,0.1,0,0.1,0.1
				C134.6,432.4,134.7,432.6,134.6,432.8C134.7,432.7,134.7,432.8,134.6,432.8C134.6,432.8,134.6,432.8,134.6,432.8z M64.4,432.3
				C64.4,432.3,64.4,432.3,64.4,432.3C64.4,432.3,64.4,432.3,64.4,432.3c-0.1-0.2,0-0.4,0-0.5c0,0,0-0.1,0.1-0.1c0,0,0.1,0,0.1,0.1
				C64.5,432,64.5,432.1,64.4,432.3C64.5,432.3,64.5,432.3,64.4,432.3z M134.2,431.5C134.2,431.5,134.2,431.5,134.2,431.5
				c-0.1,0-0.3,0-0.4,0c0,0-0.1,0-0.1-0.1c0,0,0-0.1,0.1-0.1c0.1,0,0.3,0,0.4,0C134.2,431.4,134.2,431.4,134.2,431.5
				C134.2,431.5,134.2,431.5,134.2,431.5z M132.7,431.4C132.7,431.4,132.7,431.4,132.7,431.4c-0.1,0-0.3,0-0.4,0c0,0-0.1,0-0.1-0.1
				c0,0,0-0.1,0.1-0.1c0.1,0,0.3,0,0.4,0C132.8,431.2,132.8,431.3,132.7,431.4C132.8,431.4,132.8,431.4,132.7,431.4z M131.3,431.3
				C131.3,431.3,131.3,431.3,131.3,431.3c-0.1,0-0.3,0-0.4,0c0,0-0.1,0-0.1-0.1c0,0,0-0.1,0.1-0.1c0.1,0,0.3,0,0.4,0
				C131.3,431.1,131.4,431.2,131.3,431.3C131.4,431.2,131.3,431.3,131.3,431.3z M129.9,431.2C129.9,431.2,129.8,431.2,129.9,431.2
				l-0.4,0c0,0-0.1,0-0.1-0.1c0,0,0-0.1,0.1-0.1l0.4,0C129.9,431,129.9,431.1,129.9,431.2C129.9,431.1,129.9,431.2,129.9,431.2z
				 M128.4,431.1C128.4,431.1,128.4,431.1,128.4,431.1l-0.4,0c0,0-0.1,0-0.1-0.1c0,0,0-0.1,0.1-0.1l0.4,0
				C128.5,430.9,128.5,431,128.4,431.1C128.5,431.1,128.4,431.1,128.4,431.1z M127,431C127,431,127,431,127,431l-0.4,0
				c0,0-0.1,0-0.1-0.1c0,0,0-0.1,0.1-0.1l0.4,0C127,430.9,127,430.9,127,431C127,431,127,431,127,431z M125.5,430.9
				C125.5,430.9,125.5,430.9,125.5,430.9l-0.4,0c0,0-0.1,0-0.1-0.1c0,0,0-0.1,0.1-0.1l0.4,0C125.6,430.8,125.6,430.8,125.5,430.9
				C125.6,430.9,125.6,430.9,125.5,430.9z M124.1,430.9C124.1,430.9,124.1,430.9,124.1,430.9l-0.4,0c0,0-0.1,0-0.1-0.1
				c0,0,0-0.1,0.1-0.1l0.4,0C124.1,430.7,124.2,430.8,124.1,430.9C124.2,430.8,124.1,430.9,124.1,430.9z M64.6,430.9
				C64.6,430.9,64.6,430.9,64.6,430.9C64.6,430.9,64.6,430.8,64.6,430.9l0-0.2c0-0.1,0.1-0.2,0.2-0.2l0,0c0,0,0.1,0,0.1,0.1
				c0,0,0,0.1-0.1,0.1l0,0c-0.1,0-0.1,0-0.1,0.1L64.6,430.9C64.7,430.8,64.7,430.9,64.6,430.9z M122.6,430.8
				C122.6,430.8,122.6,430.8,122.6,430.8l-0.4,0c0,0-0.1,0-0.1-0.1s0-0.1,0.1-0.1l0.4,0C122.7,430.7,122.7,430.7,122.6,430.8
				C122.7,430.8,122.7,430.8,122.6,430.8z M121.2,430.8C121.2,430.8,121.2,430.8,121.2,430.8l-0.4,0c0,0-0.1,0-0.1-0.1
				c0,0,0-0.1,0.1-0.1l0.4,0C121.2,430.6,121.3,430.7,121.2,430.8C121.3,430.7,121.2,430.8,121.2,430.8z M119.8,430.7
				C119.8,430.7,119.8,430.7,119.8,430.7l-0.4,0c0,0-0.1,0-0.1-0.1c0,0,0-0.1,0.1-0.1l0.4,0C119.8,430.6,119.8,430.6,119.8,430.7
				C119.8,430.7,119.8,430.7,119.8,430.7z M118.3,430.7C118.3,430.7,118.3,430.7,118.3,430.7l-0.4,0c0,0-0.1,0-0.1-0.1
				c0,0,0-0.1,0.1-0.1l0.4,0C118.4,430.5,118.4,430.6,118.3,430.7C118.4,430.7,118.4,430.7,118.3,430.7z M116.9,430.7
				C116.9,430.7,116.9,430.7,116.9,430.7l-0.4,0c0,0-0.1,0-0.1-0.1c0,0,0-0.1,0.1-0.1l0.4,0C116.9,430.5,116.9,430.5,116.9,430.7
				C116.9,430.6,116.9,430.7,116.9,430.7z M115.4,430.6C115.4,430.6,115.4,430.6,115.4,430.6l-0.4,0c0,0-0.1,0-0.1-0.1
				c0,0,0-0.1,0.1-0.1l0.4,0C115.5,430.5,115.5,430.5,115.4,430.6C115.5,430.6,115.5,430.6,115.4,430.6z M114,430.6
				C114,430.6,114,430.6,114,430.6l-0.4,0c0,0-0.1,0-0.1-0.1c0,0,0-0.1,0.1-0.1l0.4,0C114,430.4,114.1,430.5,114,430.6
				C114.1,430.6,114,430.6,114,430.6z M65.9,430.6C65.9,430.6,65.8,430.5,65.9,430.6c-0.1-0.1,0-0.1,0-0.1l0.4,0c0,0,0.1,0,0.1,0.1
				c0,0,0,0.1-0.1,0.1L65.9,430.6C65.9,430.6,65.9,430.6,65.9,430.6z M112.5,430.6C112.5,430.6,112.5,430.6,112.5,430.6l-0.4,0
				c0,0-0.1,0-0.1-0.1c0,0,0-0.1,0.1-0.1c0,0,0,0,0,0l0.4,0C112.6,430.4,112.6,430.5,112.5,430.6
				C112.6,430.5,112.6,430.6,112.5,430.6z M67.3,430.6C67.3,430.6,67.3,430.5,67.3,430.6c-0.1-0.1,0-0.1,0-0.1l0.4,0
				c0,0,0.1,0,0.1,0.1c0,0,0,0.1-0.1,0.1L67.3,430.6C67.3,430.6,67.3,430.6,67.3,430.6z M111.1,430.5L111.1,430.5l-0.4,0
				c0,0-0.1,0-0.1-0.1c0,0,0-0.1,0.1-0.1l0.4,0C111.1,430.4,111.2,430.4,111.1,430.5C111.2,430.5,111.1,430.5,111.1,430.5z
				 M68.8,430.5C68.7,430.5,68.7,430.5,68.8,430.5c-0.1-0.1,0-0.1,0-0.1l0.4,0c0,0,0.1,0,0.1,0.1c0,0,0,0.1-0.1,0.1L68.8,430.5
				L68.8,430.5z M70.2,430.5C70.2,430.5,70.2,430.5,70.2,430.5c-0.1-0.1,0-0.1,0-0.1l0.4,0c0,0,0.1,0,0.1,0.1c0,0,0,0.1-0.1,0.1
				L70.2,430.5L70.2,430.5z M109.7,430.5L109.7,430.5l-0.4,0c0,0-0.1,0-0.1-0.1c0,0,0-0.1,0.1-0.1h0l0.4,0
				C109.7,430.4,109.7,430.4,109.7,430.5C109.7,430.5,109.7,430.5,109.7,430.5z M71.7,430.5C71.6,430.5,71.6,430.5,71.7,430.5
				c-0.1-0.1,0-0.1,0-0.1l0.4,0c0,0,0.1,0,0.1,0.1c0,0,0,0.1-0.1,0.1L71.7,430.5L71.7,430.5z M108.2,430.5
				C108.2,430.5,108.2,430.5,108.2,430.5l-0.4,0c0,0-0.1,0-0.1-0.1c0,0,0-0.1,0.1-0.1l0.4,0C108.2,430.4,108.3,430.4,108.2,430.5
				C108.3,430.5,108.2,430.5,108.2,430.5z M73.1,430.5C73.1,430.5,73,430.5,73.1,430.5c-0.1-0.1,0-0.1,0-0.1l0.4,0h0
				c0,0,0.1,0,0.1,0.1c0,0,0,0.1-0.1,0.1L73.1,430.5L73.1,430.5z M106.8,430.5C106.8,430.5,106.8,430.5,106.8,430.5l-0.4,0
				c0,0-0.1,0-0.1-0.1c0,0,0-0.1,0.1-0.1l0.4,0C106.8,430.3,106.8,430.4,106.8,430.5C106.8,430.5,106.8,430.5,106.8,430.5z
				 M74.6,430.5C74.5,430.5,74.5,430.5,74.6,430.5c-0.1-0.1,0-0.1,0-0.1l0.4,0c0,0,0,0,0,0c0,0,0.1,0,0.1,0.1c0,0,0,0.1-0.1,0.1
				L74.6,430.5L74.6,430.5z M76,430.5C76,430.5,75.9,430.4,76,430.5c-0.1-0.1,0-0.1,0-0.1l0.4,0c0,0,0,0,0,0c0,0,0.1,0,0.1,0.1
				c0,0,0,0.1-0.1,0.1L76,430.5C76,430.5,76,430.5,76,430.5z M105.3,430.5C105.3,430.5,105.3,430.5,105.3,430.5l-0.4,0
				c0,0-0.1,0-0.1-0.1c0,0,0-0.1,0.1-0.1c0,0,0,0,0,0l0.4,0C105.4,430.3,105.4,430.4,105.3,430.5
				C105.4,430.4,105.4,430.5,105.3,430.5z M77.5,430.5C77.4,430.5,77.4,430.4,77.5,430.5c-0.1-0.1,0-0.1,0-0.1l0.4,0
				c0,0,0.1,0,0.1,0.1c0,0,0,0.1-0.1,0.1L77.5,430.5L77.5,430.5z M103.9,430.5C103.9,430.5,103.9,430.5,103.9,430.5l-0.4,0
				c0,0-0.1,0-0.1-0.1c0,0,0-0.1,0.1-0.1h0l0.4,0C103.9,430.3,103.9,430.3,103.9,430.5C103.9,430.4,103.9,430.5,103.9,430.5z
				 M78.9,430.5C78.9,430.5,78.8,430.4,78.9,430.5c-0.1-0.1,0-0.1,0-0.1l0.4,0h0c0,0,0.1,0,0.1,0.1c0,0,0,0.1-0.1,0.1L78.9,430.5
				C78.9,430.5,78.9,430.5,78.9,430.5z M102.4,430.4L102.4,430.4l-0.4,0c0,0-0.1,0-0.1-0.1c0,0,0-0.1,0.1-0.1l0.4,0
				C102.5,430.3,102.5,430.3,102.4,430.4C102.5,430.4,102.5,430.4,102.4,430.4z M80.3,430.4C80.3,430.4,80.3,430.4,80.3,430.4
				c-0.1-0.1,0-0.1,0-0.1l0.4,0c0,0,0,0,0,0c0,0,0.1,0,0.1,0.1c0,0,0,0.1-0.1,0.1L80.3,430.4L80.3,430.4z M101,430.4L101,430.4
				l-0.4,0c0,0-0.1,0-0.1-0.1c0,0,0-0.1,0.1-0.1l0.4,0C101,430.3,101.1,430.3,101,430.4C101.1,430.4,101,430.4,101,430.4z
				 M81.8,430.4C81.7,430.4,81.7,430.4,81.8,430.4c-0.1-0.1,0-0.1,0-0.1l0.4,0h0c0,0,0.1,0,0.1,0.1c0,0,0,0.1-0.1,0.1L81.8,430.4
				L81.8,430.4z M99.5,430.4C99.5,430.4,99.5,430.4,99.5,430.4l-0.4,0c0,0-0.1,0-0.1-0.1c0,0,0-0.1,0.1-0.1h0l0.4,0
				C99.6,430.3,99.6,430.3,99.5,430.4C99.6,430.4,99.6,430.4,99.5,430.4z M83.2,430.4C83.2,430.4,83.2,430.4,83.2,430.4
				c-0.1-0.1,0-0.1,0-0.1l0.4,0h0c0,0,0.1,0,0.1,0.1c0,0,0,0.1-0.1,0.1L83.2,430.4L83.2,430.4z M84.7,430.4
				C84.6,430.4,84.6,430.4,84.7,430.4c-0.1-0.1,0-0.1,0-0.1l0.4,0h0c0,0,0.1,0,0.1,0.1c0,0,0,0.1-0.1,0.1L84.7,430.4L84.7,430.4z
				 M98.1,430.4L98.1,430.4l-0.4,0c0,0-0.1,0-0.1-0.1c0,0,0-0.1,0.1-0.1h0l0.4,0C98.1,430.3,98.2,430.3,98.1,430.4
				C98.2,430.4,98.1,430.4,98.1,430.4z M86.1,430.4C86.1,430.4,86,430.4,86.1,430.4c-0.1-0.1,0-0.1,0-0.1l0.4,0h0c0,0,0.1,0,0.1,0.1
				c0,0,0,0.1-0.1,0.1L86.1,430.4L86.1,430.4z M96.7,430.4L96.7,430.4l-0.4,0c0,0-0.1,0-0.1-0.1c0,0,0-0.1,0.1-0.1h0l0.4,0
				C96.7,430.3,96.7,430.3,96.7,430.4C96.7,430.4,96.7,430.4,96.7,430.4z M87.6,430.4C87.5,430.4,87.5,430.4,87.6,430.4
				c-0.1-0.1,0-0.1,0-0.1l0.4,0h0c0,0,0.1,0,0.1,0.1c0,0,0,0.1-0.1,0.1L87.6,430.4L87.6,430.4z M95.2,430.4L95.2,430.4l-0.4,0
				c0,0-0.1,0-0.1-0.1c0,0,0-0.1,0.1-0.1h0l0.4,0C95.3,430.3,95.3,430.3,95.2,430.4C95.3,430.4,95.3,430.4,95.2,430.4z M89,430.4
				C89,430.4,88.9,430.4,89,430.4c-0.1-0.1,0-0.1,0-0.1l0.4,0c0,0,0.1,0,0.1,0.1c0,0,0,0.1-0.1,0.1L89,430.4L89,430.4z M93.8,430.4
				L93.8,430.4l-0.4,0c0,0-0.1,0-0.1-0.1c0,0,0-0.1,0.1-0.1h0l0.4,0C93.8,430.3,93.8,430.3,93.8,430.4
				C93.8,430.4,93.8,430.4,93.8,430.4z M90.5,430.4C90.4,430.4,90.4,430.4,90.5,430.4c-0.1-0.1,0-0.1,0-0.1l0.4,0c0,0,0.1,0,0.1,0.1
				c0,0,0,0.1-0.1,0.1L90.5,430.4z M92.3,430.4L92.3,430.4l-0.4,0c0,0-0.1,0-0.1-0.1s0-0.1,0.1-0.1l0.4,0
				C92.4,430.3,92.4,430.3,92.3,430.4C92.4,430.4,92.4,430.4,92.3,430.4z"/>
			<linearGradient id="SVGID_60_" gradientUnits="userSpaceOnUse" x1="103.811" y1="430.0909" x2="99.5528" y2="463.8286">
				<stop  offset="0" style="stop-color:#A737D5"/>
				<stop  offset="1" style="stop-color:#EF497A"/>
			</linearGradient>
			<path class="st65" d="M105.7,463.6h-9.5c-1.2,0-2.3-0.9-2.4-2.1l-1.1-9.1c-0.2-1.5,1-2.7,2.4-2.7h11.4c1.4,0,2.6,1.2,2.4,2.7
				l-0.8,9.1C108.1,462.6,107,463.6,105.7,463.6z"/>
			<defs>
				<filter id="Adobe_OpacityMaskFilter" filterUnits="userSpaceOnUse" x="94.7" y="451.2" width="12.4" height="10.6">
					<feFlood  style="flood-color:white;flood-opacity:1" result="back"/>
					<feBlend  in="SourceGraphic" in2="back" mode="normal"/>
				</filter>
			</defs>
			<mask maskUnits="userSpaceOnUse" x="94.7" y="451.2" width="12.4" height="10.6" id="SVGID_61_">
				<g class="st66">
					<defs>
						<filter id="Adobe_OpacityMaskFilter_1_" filterUnits="userSpaceOnUse" x="94.7" y="451.2" width="12.4" height="10.6">
							<feFlood  style="flood-color:white;flood-opacity:1" result="back"/>
							<feBlend  in="SourceGraphic" in2="back" mode="normal"/>
						</filter>
					</defs>
					<mask maskUnits="userSpaceOnUse" x="94.7" y="451.2" width="12.4" height="10.6" id="SVGID_61_">
						<g class="st67">
						</g>
					</mask>
					<linearGradient id="SVGID_62_" gradientUnits="userSpaceOnUse" x1="94.6849" y1="456.561" x2="107.0666" y2="456.561">
						<stop  offset="0" style="stop-color:#FFFFFF"/>
						<stop  offset="1" style="stop-color:#000000"/>
					</linearGradient>
					<path class="st68" d="M104.6,461.9h-7.2c-0.9,0-1.7-0.7-1.9-1.6l-0.8-6.9c-0.1-1.1,0.7-2.1,1.9-2.1h8.7c1.1,0,2,0.9,1.9,2
						l-0.6,6.9C106.4,461.1,105.6,461.9,104.6,461.9z"/>
				</g>
			</mask>
			<linearGradient id="SVGID_63_" gradientUnits="userSpaceOnUse" x1="94.6849" y1="456.561" x2="107.0666" y2="456.561">
				<stop  offset="0" style="stop-color:#FFFFFF"/>
				<stop  offset="1" style="stop-color:#FFFFFF"/>
			</linearGradient>
			<path class="st69" d="M104.6,461.9h-7.2c-0.9,0-1.7-0.7-1.9-1.6l-0.8-6.9c-0.1-1.1,0.7-2.1,1.9-2.1h8.7c1.1,0,2,0.9,1.9,2
				l-0.6,6.9C106.4,461.1,105.6,461.9,104.6,461.9z"/>
		</g>
		<linearGradient id="SVGID_64_" gradientUnits="userSpaceOnUse" x1="76.1613" y1="334.9603" x2="95.9102" y2="406.9028">
			<stop  offset="0" style="stop-color:#F9B776"/>
			<stop  offset="1" style="stop-color:#F47960"/>
		</linearGradient>
		<path class="st70" d="M93.5,410.8c-1.5,2.9-2.2,6-2.2,9.1c0,0.8,0.5,1.5,1.2,1.8c3.8,1.7,7.8,1.5,11.9,0.2c1-0.3,1.4-1.5,0.8-2.4
			c-1.4-1.8-2.4-3.7-3.1-5.9c-0.3-1.1,0.5-2.1,1.6-2.2l1.7-0.1c-1.9-3.8-5.2-7.5-9.7-11L93.5,410.8z"/>
	</g>
</g>
</svg>
